<svg version="1.1" xmlns="http://www.w3.org/2000/svg" xmlns:xlink="http://www.w3.org/1999/xlink" width="762.5126953125" height="619"><defs/><g><g transform="translate(-326,-190) scale(1,1)"><rect fill="#C0C0C0" stroke="none" x="591" y="631" width="231.904296875" height="145" opacity="0.2"/></g><g transform="translate(-326,-190) scale(1,1)"><rect fill="#ffffff" stroke="none" x="584" y="624" width="231.904296875" height="145"/></g><g transform="translate(-326,-190) scale(1,1)"><path fill="none" stroke="#000000" d="M 584 624 L 815.904296875 624 L 815.904296875 769 L 584 769 L 584 624 Z Z" stroke-miterlimit="10"/></g><g transform="translate(-326,-190) scale(1,1)"><path fill="none" stroke="#000000" d="M 584 649 L 815.904296875 649" stroke-miterlimit="10"/></g><g transform="translate(-326,-190) scale(1,1)"><path fill="none" stroke="#000000" d="M 584 702 L 815.904296875 702" stroke-miterlimit="10"/></g><g transform="translate(-326,-190) scale(1,1)"><g><path fill="none" stroke="none"/><text fill="#000000" stroke="none" font-family="Arial" font-size="13px" font-style="normal" font-weight="bold" text-decoration="none" x="686.228515625" y="643.5">User</text></g></g><g transform="translate(-326,-190) scale(1,1)"><g><path fill="none" stroke="none"/><text fill="#000000" stroke="none" font-family="Arial" font-size="13px" font-style="normal" font-weight="normal" text-decoration="none" x="589" y="666.5">+username</text></g></g><g transform="translate(-326,-190) scale(1,1)"><g><path fill="none" stroke="none"/><text fill="#000000" stroke="none" font-family="Arial" font-size="13px" font-style="normal" font-weight="normal" text-decoration="none" x="589" y="681.5">+password</text></g></g><g transform="translate(-326,-190) scale(1,1)"><g><path fill="none" stroke="none"/><text fill="#000000" stroke="none" font-family="Arial" font-size="13px" font-style="normal" font-weight="normal" text-decoration="none" x="589" y="696.5">+email</text></g></g><g transform="translate(-326,-190) scale(1,1)"><g><path fill="none" stroke="none"/><text fill="#000000" stroke="none" font-family="Arial" font-size="13px" font-style="normal" font-weight="normal" text-decoration="none" x="589" y="719.5">+Cancellare i propri post()</text></g></g><g transform="translate(-326,-190) scale(1,1)"><g><path fill="none" stroke="none"/><text fill="#000000" stroke="none" font-family="Arial" font-size="13px" font-style="normal" font-weight="normal" text-decoration="none" x="589" y="734.5">+Cancellare le proprie collezioni()</text></g></g><g transform="translate(-326,-190) scale(1,1)"><g><path fill="none" stroke="none"/><text fill="#000000" stroke="none" font-family="Arial" font-size="13px" font-style="normal" font-weight="normal" text-decoration="none" x="589" y="749.5">+Aggiungere post()</text></g></g><g transform="translate(-326,-190) scale(1,1)"><g><path fill="none" stroke="none"/><text fill="#000000" stroke="none" font-family="Arial" font-size="13px" font-style="normal" font-weight="normal" text-decoration="none" x="589" y="764.5">+Modificare il proprio profilo()</text></g></g><g transform="translate(-326,-190) scale(1,1)"><rect fill="#C0C0C0" stroke="none" x="575" y="415" width="246.376953125" height="70" opacity="0.2"/></g><g transform="translate(-326,-190) scale(1,1)"><rect fill="#ffffff" stroke="none" x="568" y="408" width="246.376953125" height="70"/></g><g transform="translate(-326,-190) scale(1,1)"><path fill="none" stroke="#000000" d="M 568 408 L 814.376953125 408 L 814.376953125 478 L 568 478 L 568 408 Z Z" stroke-miterlimit="10"/></g><g transform="translate(-326,-190) scale(1,1)"><path fill="none" stroke="#000000" d="M 568 433 L 814.376953125 433" stroke-miterlimit="10"/></g><g transform="translate(-326,-190) scale(1,1)"><path fill="none" stroke="#000000" d="M 568 456 L 814.376953125 456" stroke-miterlimit="10"/></g><g transform="translate(-326,-190) scale(1,1)"><g><path fill="none" stroke="none"/><text fill="#000000" stroke="none" font-family="Arial" font-size="13px" font-style="normal" font-weight="bold" text-decoration="none" x="678.18212890625" y="427.5">Post</text></g></g><g transform="translate(-326,-190) scale(1,1)"><g><path fill="none" stroke="none"/><text fill="#000000" stroke="none" font-family="Arial" font-size="13px" font-style="normal" font-weight="normal" text-decoration="none" x="573" y="450.5">+photo</text></g></g><g transform="translate(-326,-190) scale(1,1)"><g><path fill="none" stroke="none"/><text fill="#000000" stroke="none" font-family="Arial" font-size="13px" font-style="normal" font-weight="normal" text-decoration="none" x="573" y="473.5">+Vedere il numero di segnalibri del post()</text></g></g><g transform="translate(-326,-190) scale(1,1)"><rect fill="#C0C0C0" stroke="none" x="807" y="255" width="273.8115234375" height="85" opacity="0.2"/></g><g transform="translate(-326,-190) scale(1,1)"><rect fill="#ffffff" stroke="none" x="800" y="248" width="273.8115234375" height="85"/></g><g transform="translate(-326,-190) scale(1,1)"><path fill="none" stroke="#000000" d="M 800 248 L 1073.8115234375 248 L 1073.8115234375 333 L 800 333 L 800 248 Z Z" stroke-miterlimit="10"/></g><g transform="translate(-326,-190) scale(1,1)"><path fill="none" stroke="#000000" d="M 800 273 L 1073.8115234375 273" stroke-miterlimit="10"/></g><g transform="translate(-326,-190) scale(1,1)"><path fill="none" stroke="#000000" d="M 800 296 L 1073.8115234375 296" stroke-miterlimit="10"/></g><g transform="translate(-326,-190) scale(1,1)"><g><path fill="none" stroke="none"/><text fill="#000000" stroke="none" font-family="Arial" font-size="13px" font-style="normal" font-weight="bold" text-decoration="none" x="908.363525390625" y="267.5">Collection</text></g></g><g transform="translate(-326,-190) scale(1,1)"><g><path fill="none" stroke="none"/><text fill="#000000" stroke="none" font-family="Arial" font-size="13px" font-style="normal" font-weight="normal" text-decoration="none" x="805" y="290.5">+name</text></g></g><g transform="translate(-326,-190) scale(1,1)"><g><path fill="none" stroke="none"/><text fill="#000000" stroke="none" font-family="Arial" font-size="13px" font-style="normal" font-weight="normal" text-decoration="none" x="805" y="313.5">+Leggere il numero di partecipanti()</text></g></g><g transform="translate(-326,-190) scale(1,1)"><g><path fill="none" stroke="none"/><text fill="#000000" stroke="none" font-family="Arial" font-size="13px" font-style="normal" font-weight="normal" text-decoration="none" x="805" y="328.5">+Leggere il numero di post()</text></g></g><g transform="translate(-326,-190) scale(1,1)"><rect fill="#C0C0C0" stroke="none" x="919" y="407" width="120.99169921875" height="72" opacity="0.2"/></g><g transform="translate(-326,-190) scale(1,1)"><rect fill="#ffffff" stroke="none" x="912" y="400" width="120.99169921875" height="72"/></g><g transform="translate(-326,-190) scale(1,1)"><path fill="none" stroke="#000000" d="M 912 400 L 1032.99169921875 400 L 1032.99169921875 472 L 912 472 L 912 400 Z Z" stroke-miterlimit="10"/></g><g transform="translate(-326,-190) scale(1,1)"><path fill="none" stroke="#000000" d="M 912 425 L 1032.99169921875 425" stroke-miterlimit="10"/></g><g transform="translate(-326,-190) scale(1,1)"><path fill="none" stroke="#000000" d="M 912 463 L 1032.99169921875 463" stroke-miterlimit="10"/></g><g transform="translate(-326,-190) scale(1,1)"><g><path fill="none" stroke="none"/><text fill="#000000" stroke="none" font-family="Arial" font-size="13px" font-style="normal" font-weight="bold" text-decoration="none" x="952.627685546875" y="419.5">Device</text></g></g><g transform="translate(-326,-190) scale(1,1)"><g><path fill="none" stroke="none"/><text fill="#000000" stroke="none" font-family="Arial" font-size="13px" font-style="normal" font-weight="normal" text-decoration="none" x="917" y="442.5">+brand</text></g></g><g transform="translate(-326,-190) scale(1,1)"><g><path fill="none" stroke="none"/><text fill="#000000" stroke="none" font-family="Arial" font-size="13px" font-style="normal" font-weight="normal" text-decoration="none" x="917" y="457.5">+model</text></g></g><g transform="translate(-326,-190) scale(1,1)"><rect fill="#C0C0C0" stroke="none" x="479" y="207" width="300.59228515625" height="70" opacity="0.2"/></g><g transform="translate(-326,-190) scale(1,1)"><rect fill="#ffffff" stroke="none" x="472" y="200" width="300.59228515625" height="70"/></g><g transform="translate(-326,-190) scale(1,1)"><path fill="none" stroke="#000000" d="M 472 200 L 772.59228515625 200 L 772.59228515625 270 L 472 270 L 472 200 Z Z" stroke-miterlimit="10"/></g><g transform="translate(-326,-190) scale(1,1)"><path fill="none" stroke="#000000" d="M 472 225 L 772.59228515625 225" stroke-miterlimit="10"/></g><g transform="translate(-326,-190) scale(1,1)"><path fill="none" stroke="#000000" d="M 472 248 L 772.59228515625 248" stroke-miterlimit="10"/></g><g transform="translate(-326,-190) scale(1,1)"><g><path fill="none" stroke="none"/><text fill="#000000" stroke="none" font-family="Arial" font-size="13px" font-style="normal" font-weight="bold" text-decoration="none" x="600.61572265625" y="219.5">Subject</text></g></g><g transform="translate(-326,-190) scale(1,1)"><g><path fill="none" stroke="none"/><text fill="#000000" stroke="none" font-family="Arial" font-size="13px" font-style="normal" font-weight="normal" text-decoration="none" x="477" y="242.5">+name</text></g></g><g transform="translate(-326,-190) scale(1,1)"><g><path fill="none" stroke="none"/><text fill="#000000" stroke="none" font-family="Arial" font-size="13px" font-style="normal" font-weight="normal" text-decoration="none" x="477" y="265.5">+Recuperare le foto dove raffigura il soggetto()</text></g></g><g transform="translate(-326,-190) scale(1,1)"><rect fill="#C0C0C0" stroke="none" x="343" y="359" width="202.99072265625" height="57" opacity="0.2"/></g><g transform="translate(-326,-190) scale(1,1)"><rect fill="#ffffff" stroke="none" x="336" y="352" width="202.99072265625" height="57"/></g><g transform="translate(-326,-190) scale(1,1)"><path fill="none" stroke="#000000" d="M 336 352 L 538.99072265625 352 L 538.99072265625 409 L 336 409 L 336 352 Z Z" stroke-miterlimit="10"/></g><g transform="translate(-326,-190) scale(1,1)"><path fill="none" stroke="#000000" d="M 336 377 L 538.99072265625 377" stroke-miterlimit="10"/></g><g transform="translate(-326,-190) scale(1,1)"><path fill="none" stroke="#000000" d="M 336 387 L 538.99072265625 387" stroke-miterlimit="10"/></g><g transform="translate(-326,-190) scale(1,1)"><g><path fill="none" stroke="none"/><text fill="#000000" stroke="none" font-family="Arial" font-size="13px" font-style="normal" font-weight="bold" text-decoration="none" x="412.92041015625" y="371.5">Location</text></g></g><g transform="translate(-326,-190) scale(1,1)"><g><path fill="none" stroke="none"/><text fill="#000000" stroke="none" font-family="Arial" font-size="13px" font-style="normal" font-weight="normal" text-decoration="none" x="341" y="404.5">+Visualizzare indirizzo completo()</text></g></g><g transform="translate(-326,-190) scale(1,1)"><path fill="none" stroke="#000000" d="M 584 752 L 552 752 L 552 690 L 584 690" stroke-miterlimit="10"/></g><g transform="translate(-326,-190) scale(1,1)"><g><path fill="none" stroke="none"/><text fill="#000000" stroke="none" font-family="Arial" font-size="13px" font-style="normal" font-weight="normal" text-decoration="none" x="526.5" y="799.5">+follows</text></g></g><g transform="translate(-326,-190) scale(1,1)"><g><path fill="none" stroke="none"/><text fill="#000000" stroke="none" font-family="Arial" font-size="13px" font-style="normal" font-weight="normal" text-decoration="none" x="564.5" y="773.5">0..*</text></g></g><g transform="translate(-326,-190) scale(1,1)"><g><path fill="none" stroke="none"/><text fill="#000000" stroke="none" font-family="Arial" font-size="13px" font-style="normal" font-weight="normal" text-decoration="none" x="506.30908203125" y="668.5">+is followed</text></g></g><g transform="translate(-326,-190) scale(1,1)"><g><path fill="none" stroke="none"/><text fill="#000000" stroke="none" font-family="Arial" font-size="13px" font-style="normal" font-weight="normal" text-decoration="none" x="556.5" y="682.5">0..*</text></g></g><g transform="translate(-326,-190) scale(1,1)"><path fill="none" stroke="#000000" d="M 792 478 L 792 624" stroke-miterlimit="10"/></g><g transform="translate(-326,-190) scale(1,1)"><g><path fill="none" stroke="none"/><text fill="#000000" stroke="none" font-family="Arial" font-size="13px" font-style="normal" font-weight="normal" text-decoration="none" x="798.5" y="512.5">+mentioned in</text></g></g><g transform="translate(-326,-190) scale(1,1)"><g><path fill="none" stroke="none"/><text fill="#000000" stroke="none" font-family="Arial" font-size="13px" font-style="normal" font-weight="normal" text-decoration="none" x="799.5" y="495.5">0..*</text></g></g><g transform="translate(-326,-190) scale(1,1)"><g><path fill="none" stroke="none"/><text fill="#000000" stroke="none" font-family="Arial" font-size="13px" font-style="normal" font-weight="normal" text-decoration="none" x="791.5" y="604.5">+mention</text></g></g><g transform="translate(-326,-190) scale(1,1)"><g><path fill="none" stroke="none"/><text fill="#000000" stroke="none" font-family="Arial" font-size="13px" font-style="normal" font-weight="normal" text-decoration="none" x="799.5" y="620.5">0..*</text></g></g><g transform="translate(-326,-190) scale(1,1)"><path fill="none" stroke="#000000" d="M 1056 333 L 1056 688 M 1056 688 A 8 8 0 0 1 1048 696 L 816 696" stroke-miterlimit="10"/></g><g transform="translate(-326,-190) scale(1,1)"><g><path fill="none" stroke="none"/><text fill="#000000" stroke="none" font-family="Arial" font-size="13px" font-style="normal" font-weight="normal" text-decoration="none" x="982.5" y="675.5">+creates &gt;</text></g></g><g transform="translate(-326,-190) scale(1,1)"><g><path fill="none" stroke="none"/><text fill="#000000" stroke="none" font-family="Arial" font-size="13px" font-style="normal" font-weight="normal" text-decoration="none" x="1059.5" y="356.5">0..*</text></g></g><g transform="translate(-326,-190) scale(1,1)"><g><path fill="none" stroke="none"/><text fill="#000000" stroke="none" font-family="Arial" font-size="13px" font-style="normal" font-weight="normal" text-decoration="none" x="823.5" y="718.5">1..1</text></g></g><g transform="translate(-326,-190) scale(1,1)"><path fill="none" stroke="#000000" d="M 592 624 L 592 478" stroke-miterlimit="10"/></g><g transform="translate(-326,-190) scale(1,1)"><g><path fill="none" stroke="none"/><text fill="#000000" stroke="none" font-family="Arial" font-size="13px" font-style="normal" font-weight="normal" text-decoration="none" x="535.5" y="611.5">+liked by</text></g></g><g transform="translate(-326,-190) scale(1,1)"><g><path fill="none" stroke="none"/><text fill="#000000" stroke="none" font-family="Arial" font-size="13px" font-style="normal" font-weight="normal" text-decoration="none" x="594.5" y="620.5">0..*</text></g></g><g transform="translate(-326,-190) scale(1,1)"><g><path fill="none" stroke="none"/><text fill="#000000" stroke="none" font-family="Arial" font-size="13px" font-style="normal" font-weight="normal" text-decoration="none" x="551.5" y="497.5">+likes</text></g></g><g transform="translate(-326,-190) scale(1,1)"><g><path fill="none" stroke="none"/><text fill="#000000" stroke="none" font-family="Arial" font-size="13px" font-style="normal" font-weight="normal" text-decoration="none" x="599.5" y="496.5">0..*</text></g></g><g transform="translate(-326,-190) scale(1,1)"><path fill="none" stroke="#000000" d="M 814 414 L 912 414" stroke-miterlimit="10"/></g><g transform="translate(-326,-190) scale(1,1)"><g><path fill="none" stroke="none"/><text fill="#000000" stroke="none" font-family="Arial" font-size="13px" font-style="normal" font-weight="normal" text-decoration="none" x="821.5" y="404.5">+snapped with</text></g></g><g transform="translate(-326,-190) scale(1,1)"><g><path fill="none" stroke="none"/><text fill="#000000" stroke="none" font-family="Arial" font-size="13px" font-style="normal" font-weight="normal" text-decoration="none" x="825.5" y="432.5">0..*</text></g></g><g transform="translate(-326,-190) scale(1,1)"><g><path fill="none" stroke="none"/><text fill="#000000" stroke="none" font-family="Arial" font-size="13px" font-style="normal" font-weight="normal" text-decoration="none" x="879.5" y="432.5">1..1</text></g></g><g transform="translate(-326,-190) scale(1,1)"><path fill="none" stroke="#000000" d="M 437 409 L 437 457 M 437 457 A 8 8 0 0 0 445 465 L 568 465" stroke-miterlimit="10"/></g><g transform="translate(-326,-190) scale(1,1)"><g><path fill="none" stroke="none"/><text fill="#000000" stroke="none" font-family="Arial" font-size="13px" font-style="normal" font-weight="normal" text-decoration="none" x="441.5" y="452.5">+&lt; snapped in</text></g></g><g transform="translate(-326,-190) scale(1,1)"><g><path fill="none" stroke="none"/><text fill="#000000" stroke="none" font-family="Arial" font-size="13px" font-style="normal" font-weight="normal" text-decoration="none" x="407.5" y="432.5">0..1</text></g></g><g transform="translate(-326,-190) scale(1,1)"><g><path fill="none" stroke="none"/><text fill="#000000" stroke="none" font-family="Arial" font-size="13px" font-style="normal" font-weight="normal" text-decoration="none" x="535.5" y="459.5">1..1</text></g></g><g transform="translate(-326,-190) scale(1,1)"><path fill="none" stroke="#000000" d="M 808 408 L 808 333" stroke-miterlimit="10"/></g><g transform="translate(-326,-190) scale(1,1)"><g><path fill="none" stroke="none"/><text fill="#000000" stroke="none" font-family="Arial" font-size="13px" font-style="normal" font-weight="normal" text-decoration="none" x="737.5" y="378.5">+included &gt;</text></g></g><g transform="translate(-326,-190) scale(1,1)"><g><path fill="none" stroke="none"/><text fill="#000000" stroke="none" font-family="Arial" font-size="13px" font-style="normal" font-weight="normal" text-decoration="none" x="783.5" y="403.5">0..*</text></g></g><g transform="translate(-326,-190) scale(1,1)"><g><path fill="none" stroke="none"/><text fill="#000000" stroke="none" font-family="Arial" font-size="13px" font-style="normal" font-weight="normal" text-decoration="none" x="779.5" y="360.5">0..*</text></g></g><g transform="translate(-326,-190) scale(1,1)"><rect fill="#C0C0C0" stroke="none" x="575" y="319" width="89.57080078125" height="57" opacity="0.2"/></g><g transform="translate(-326,-190) scale(1,1)"><rect fill="#ffffff" stroke="none" x="568" y="312" width="89.57080078125" height="57"/></g><g transform="translate(-326,-190) scale(1,1)"><path fill="none" stroke="#000000" d="M 568 312 L 657.57080078125 312 L 657.57080078125 369 L 568 369 L 568 312 Z Z" stroke-miterlimit="10"/></g><g transform="translate(-326,-190) scale(1,1)"><path fill="none" stroke="#000000" d="M 568 337 L 657.57080078125 337" stroke-miterlimit="10"/></g><g transform="translate(-326,-190) scale(1,1)"><path fill="none" stroke="#000000" d="M 568 360 L 657.57080078125 360" stroke-miterlimit="10"/></g><g transform="translate(-326,-190) scale(1,1)"><g><path fill="none" stroke="none"/><text fill="#000000" stroke="none" font-family="Arial" font-size="13px" font-style="normal" font-weight="bold" text-decoration="none" x="587.13134765625" y="331.5">Contains</text></g></g><g transform="translate(-326,-190) scale(1,1)"><g><path fill="none" stroke="none"/><text fill="#000000" stroke="none" font-family="Arial" font-size="13px" font-style="normal" font-weight="normal" text-decoration="none" x="573" y="354.5">+category</text></g></g><g transform="translate(-326,-190) scale(1,1)"><path fill="none" stroke="#000000" d="M 688 270 L 688 408" stroke-miterlimit="10"/></g><g transform="translate(-326,-190) scale(1,1)"><g><path fill="none" stroke="none"/><text fill="#000000" stroke="none" font-family="Arial" font-size="13px" font-style="normal" font-weight="normal" text-decoration="none" x="665.5" y="297.5">0..*</text></g></g><g transform="translate(-326,-190) scale(1,1)"><g><path fill="none" stroke="none"/><text fill="#000000" stroke="none" font-family="Arial" font-size="13px" font-style="normal" font-weight="normal" text-decoration="none" x="665.5" y="392.5">1..*</text></g></g><g transform="translate(-326,-190) scale(1,1)"><path fill="none" stroke="#000000" d="M 659 339 L 688 339" stroke-miterlimit="10" stroke-dasharray="3"/></g><g transform="translate(-326,-190) scale(1,1)"><path fill="none" stroke="#000000" d="M 692 478 L 692 624" stroke-miterlimit="10"/></g><g transform="translate(-326,-190) scale(1,1)"><g><path fill="none" stroke="none"/><text fill="#000000" stroke="none" font-family="Arial" font-size="13px" font-style="normal" font-weight="normal" text-decoration="none" x="694.5" y="495.5">+publish</text></g></g><g transform="translate(-326,-190) scale(1,1)"><g><path fill="none" stroke="none"/><text fill="#000000" stroke="none" font-family="Arial" font-size="13px" font-style="normal" font-weight="normal" text-decoration="none" x="669.680908203125" y="496.5">0..*</text></g></g><g transform="translate(-326,-190) scale(1,1)"><g><path fill="none" stroke="none"/><text fill="#000000" stroke="none" font-family="Arial" font-size="13px" font-style="normal" font-weight="normal" text-decoration="none" x="694.5" y="620.5">+published by</text></g></g><g transform="translate(-326,-190) scale(1,1)"><g><path fill="none" stroke="none"/><text fill="#000000" stroke="none" font-family="Arial" font-size="13px" font-style="normal" font-weight="normal" text-decoration="none" x="668.5" y="620.5">0..1</text></g></g><g transform="translate(-326,-190) scale(1,1)"><path fill="none" stroke="#000000" d="M 816 656 L 928 656 M 928 656 A 8 8 0 0 0 936 648 L 936 472" stroke-miterlimit="10"/></g><g transform="translate(-326,-190) scale(1,1)"><g><path fill="none" stroke="none"/><text fill="#000000" stroke="none" font-family="Arial" font-size="13px" font-style="normal" font-weight="normal" text-decoration="none" x="887.5" y="643.5">+has &gt;</text></g></g><g transform="translate(-326,-190) scale(1,1)"><g><path fill="none" stroke="none"/><text fill="#000000" stroke="none" font-family="Arial" font-size="13px" font-style="normal" font-weight="normal" text-decoration="none" x="827.5" y="674.5">1..*</text></g></g><g transform="translate(-326,-190) scale(1,1)"><g><path fill="none" stroke="none"/><text fill="#000000" stroke="none" font-family="Arial" font-size="13px" font-style="normal" font-weight="normal" text-decoration="none" x="938.5" y="499.5">0..*</text></g></g></g></svg>