<svg version="1.1" xmlns="http://www.w3.org/2000/svg" xmlns:xlink="http://www.w3.org/1999/xlink" width="780.7861328125" height="706"><defs/><g><g transform="translate(-62,-78) scale(1,1)"><rect fill="#C0C0C0" stroke="none" x="631" y="399" width="208.7861328125" height="175" opacity="0.2"/></g><g transform="translate(-62,-78) scale(1,1)"><rect fill="#ffffff" stroke="none" x="624" y="392" width="208.7861328125" height="175"/></g><g transform="translate(-62,-78) scale(1,1)"><path fill="none" stroke="#000000" d="M 624 392 L 832.7861328125 392 L 832.7861328125 567 L 624 567 L 624 392 Z Z" stroke-miterlimit="10"/></g><g transform="translate(-62,-78) scale(1,1)"><path fill="none" stroke="#000000" d="M 624 417 L 832.7861328125 417" stroke-miterlimit="10"/></g><g transform="translate(-62,-78) scale(1,1)"><path fill="none" stroke="#000000" d="M 624 515 L 832.7861328125 515" stroke-miterlimit="10"/></g><g transform="translate(-62,-78) scale(1,1)"><g><path fill="none" stroke="none"/><text fill="#000000" stroke="none" font-family="Arial" font-size="13px" font-style="normal" font-weight="bold" text-decoration="none" x="714.66943359375" y="411.5">User</text></g></g><g transform="translate(-62,-78) scale(1,1)"><g><path fill="none" stroke="none"/><text fill="#000000" stroke="none" font-family="Arial" font-size="13px" font-style="normal" font-weight="normal" text-decoration="none" x="629" y="434.5">-username: String</text></g></g><g transform="translate(-62,-78) scale(1,1)"><g><path fill="none" stroke="none"/><text fill="#000000" stroke="none" font-family="Arial" font-size="13px" font-style="normal" font-weight="normal" text-decoration="none" x="629" y="449.5">-name: String</text></g></g><g transform="translate(-62,-78) scale(1,1)"><g><path fill="none" stroke="none"/><text fill="#000000" stroke="none" font-family="Arial" font-size="13px" font-style="normal" font-weight="normal" text-decoration="none" x="629" y="464.5">-email: String</text></g></g><g transform="translate(-62,-78) scale(1,1)"><g><path fill="none" stroke="none"/><text fill="#000000" stroke="none" font-family="Arial" font-size="13px" font-style="normal" font-weight="normal" text-decoration="none" x="629" y="479.5">-gender: String</text></g></g><g transform="translate(-62,-78) scale(1,1)"><g><path fill="none" stroke="none"/><text fill="#000000" stroke="none" font-family="Arial" font-size="13px" font-style="normal" font-weight="normal" text-decoration="none" x="629" y="494.5">-bio: String</text></g></g><g transform="translate(-62,-78) scale(1,1)"><g><path fill="none" stroke="none"/><text fill="#000000" stroke="none" font-family="Arial" font-size="13px" font-style="normal" font-weight="normal" text-decoration="none" x="629" y="509.5">-avatar: Image</text></g></g><g transform="translate(-62,-78) scale(1,1)"><g><path fill="none" stroke="none"/><text fill="#000000" stroke="none" font-family="Arial" font-size="13px" font-style="normal" font-weight="normal" text-decoration="none" x="629" y="532.5">+removePost(value: int): void</text></g></g><g transform="translate(-62,-78) scale(1,1)"><g><path fill="none" stroke="none"/><text fill="#000000" stroke="none" font-family="Arial" font-size="13px" font-style="normal" font-weight="normal" text-decoration="none" x="629" y="547.5">+addPost(value: Post): void</text></g></g><g transform="translate(-62,-78) scale(1,1)"><g><path fill="none" stroke="none"/><text fill="#000000" stroke="none" font-family="Arial" font-size="13px" font-style="normal" font-weight="normal" text-decoration="none" x="629" y="562.5">+removeCollection(value: int): void</text></g></g><g transform="translate(-62,-78) scale(1,1)"><rect fill="#C0C0C0" stroke="none" x="255" y="391" width="117.3798828125" height="192" opacity="0.2"/></g><g transform="translate(-62,-78) scale(1,1)"><rect fill="#ffffff" stroke="none" x="248" y="384" width="117.3798828125" height="192"/></g><g transform="translate(-62,-78) scale(1,1)"><path fill="none" stroke="#000000" d="M 248 384 L 365.3798828125 384 L 365.3798828125 576 L 248 576 L 248 384 Z Z" stroke-miterlimit="10"/></g><g transform="translate(-62,-78) scale(1,1)"><path fill="none" stroke="#000000" d="M 248 409 L 365.3798828125 409" stroke-miterlimit="10"/></g><g transform="translate(-62,-78) scale(1,1)"><path fill="none" stroke="#000000" d="M 248 567 L 365.3798828125 567" stroke-miterlimit="10"/></g><g transform="translate(-62,-78) scale(1,1)"><g><path fill="none" stroke="none"/><text fill="#000000" stroke="none" font-family="Arial" font-size="13px" font-style="normal" font-weight="bold" text-decoration="none" x="293.68359375" y="403.5">Post</text></g></g><g transform="translate(-62,-78) scale(1,1)"><g><path fill="none" stroke="none"/><text fill="#000000" stroke="none" font-family="Arial" font-size="13px" font-style="normal" font-weight="normal" text-decoration="none" x="253" y="426.5">-idImage: int</text></g></g><g transform="translate(-62,-78) scale(1,1)"><g><path fill="none" stroke="none"/><text fill="#000000" stroke="none" font-family="Arial" font-size="13px" font-style="normal" font-weight="normal" text-decoration="none" x="253" y="441.5">-photo: Image</text></g></g><g transform="translate(-62,-78) scale(1,1)"><g><path fill="none" stroke="none"/><text fill="#000000" stroke="none" font-family="Arial" font-size="13px" font-style="normal" font-weight="normal" text-decoration="none" x="253" y="456.5">-resolution: String</text></g></g><g transform="translate(-62,-78) scale(1,1)"><g><path fill="none" stroke="none"/><text fill="#000000" stroke="none" font-family="Arial" font-size="13px" font-style="normal" font-weight="normal" text-decoration="none" x="253" y="471.5">-description: String</text></g></g><g transform="translate(-62,-78) scale(1,1)"><g><path fill="none" stroke="none"/><text fill="#000000" stroke="none" font-family="Arial" font-size="13px" font-style="normal" font-weight="normal" text-decoration="none" x="253" y="486.5">-size: int</text></g></g><g transform="translate(-62,-78) scale(1,1)"><g><path fill="none" stroke="none"/><text fill="#000000" stroke="none" font-family="Arial" font-size="13px" font-style="normal" font-weight="normal" text-decoration="none" x="253" y="501.5">-extension: String</text></g></g><g transform="translate(-62,-78) scale(1,1)"><g><path fill="none" stroke="none"/><text fill="#000000" stroke="none" font-family="Arial" font-size="13px" font-style="normal" font-weight="normal" text-decoration="none" x="253" y="516.5">-date: Timestamp</text></g></g><g transform="translate(-62,-78) scale(1,1)"><g><path fill="none" stroke="none"/><text fill="#000000" stroke="none" font-family="Arial" font-size="13px" font-style="normal" font-weight="normal" text-decoration="none" x="253" y="531.5">-status: String</text></g></g><g transform="translate(-62,-78) scale(1,1)"><g><path fill="none" stroke="none"/><text fill="#000000" stroke="none" font-family="Arial" font-size="13px" font-style="normal" font-weight="normal" text-decoration="none" x="253" y="546.5">-preview: Image</text></g></g><g transform="translate(-62,-78) scale(1,1)"><g><path fill="none" stroke="none"/><text fill="#000000" stroke="none" font-family="Arial" font-size="13px" font-style="normal" font-weight="normal" text-decoration="none" x="253" y="561.5">-likesNumber: int</text></g></g><g transform="translate(-62,-78) scale(1,1)"><rect fill="#C0C0C0" stroke="none" x="431" y="215" width="117.3798828125" height="117" opacity="0.2"/></g><g transform="translate(-62,-78) scale(1,1)"><rect fill="#ffffff" stroke="none" x="424" y="208" width="117.3798828125" height="117"/></g><g transform="translate(-62,-78) scale(1,1)"><path fill="none" stroke="#000000" d="M 424 208 L 541.3798828125 208 L 541.3798828125 325 L 424 325 L 424 208 Z Z" stroke-miterlimit="10"/></g><g transform="translate(-62,-78) scale(1,1)"><path fill="none" stroke="#000000" d="M 424 233 L 541.3798828125 233" stroke-miterlimit="10"/></g><g transform="translate(-62,-78) scale(1,1)"><path fill="none" stroke="#000000" d="M 424 316 L 541.3798828125 316" stroke-miterlimit="10"/></g><g transform="translate(-62,-78) scale(1,1)"><g><path fill="none" stroke="none"/><text fill="#000000" stroke="none" font-family="Arial" font-size="13px" font-style="normal" font-weight="bold" text-decoration="none" x="454.147705078125" y="227.5">Collection</text></g></g><g transform="translate(-62,-78) scale(1,1)"><g><path fill="none" stroke="none"/><text fill="#000000" stroke="none" font-family="Arial" font-size="13px" font-style="normal" font-weight="normal" text-decoration="none" x="429" y="250.5">-idCollection: int</text></g></g><g transform="translate(-62,-78) scale(1,1)"><g><path fill="none" stroke="none"/><text fill="#000000" stroke="none" font-family="Arial" font-size="13px" font-style="normal" font-weight="normal" text-decoration="none" x="429" y="265.5">-name: String</text></g></g><g transform="translate(-62,-78) scale(1,1)"><g><path fill="none" stroke="none"/><text fill="#000000" stroke="none" font-family="Arial" font-size="13px" font-style="normal" font-weight="normal" text-decoration="none" x="429" y="280.5">-description: String</text></g></g><g transform="translate(-62,-78) scale(1,1)"><g><path fill="none" stroke="none"/><text fill="#000000" stroke="none" font-family="Arial" font-size="13px" font-style="normal" font-weight="normal" text-decoration="none" x="429" y="295.5">-postCount: int</text></g></g><g transform="translate(-62,-78) scale(1,1)"><g><path fill="none" stroke="none"/><text fill="#000000" stroke="none" font-family="Arial" font-size="13px" font-style="normal" font-weight="normal" text-decoration="none" x="429" y="310.5">-memberCount: int</text></g></g><g transform="translate(-62,-78) scale(1,1)"><rect fill="#C0C0C0" stroke="none" x="463" y="639" width="120.99169921875" height="102" opacity="0.2"/></g><g transform="translate(-62,-78) scale(1,1)"><rect fill="#ffffff" stroke="none" x="456" y="632" width="120.99169921875" height="102"/></g><g transform="translate(-62,-78) scale(1,1)"><path fill="none" stroke="#000000" d="M 456 632 L 576.99169921875 632 L 576.99169921875 734 L 456 734 L 456 632 Z Z" stroke-miterlimit="10"/></g><g transform="translate(-62,-78) scale(1,1)"><path fill="none" stroke="#000000" d="M 456 657 L 576.99169921875 657" stroke-miterlimit="10"/></g><g transform="translate(-62,-78) scale(1,1)"><path fill="none" stroke="#000000" d="M 456 725 L 576.99169921875 725" stroke-miterlimit="10"/></g><g transform="translate(-62,-78) scale(1,1)"><g><path fill="none" stroke="none"/><text fill="#000000" stroke="none" font-family="Arial" font-size="13px" font-style="normal" font-weight="bold" text-decoration="none" x="496.627685546875" y="651.5">Device</text></g></g><g transform="translate(-62,-78) scale(1,1)"><g><path fill="none" stroke="none"/><text fill="#000000" stroke="none" font-family="Arial" font-size="13px" font-style="normal" font-weight="normal" text-decoration="none" x="461" y="674.5">-idDevice: int</text></g></g><g transform="translate(-62,-78) scale(1,1)"><g><path fill="none" stroke="none"/><text fill="#000000" stroke="none" font-family="Arial" font-size="13px" font-style="normal" font-weight="normal" text-decoration="none" x="461" y="689.5">-brand: String</text></g></g><g transform="translate(-62,-78) scale(1,1)"><g><path fill="none" stroke="none"/><text fill="#000000" stroke="none" font-family="Arial" font-size="13px" font-style="normal" font-weight="normal" text-decoration="none" x="461" y="704.5">-model: String</text></g></g><g transform="translate(-62,-78) scale(1,1)"><g><path fill="none" stroke="none"/><text fill="#000000" stroke="none" font-family="Arial" font-size="13px" font-style="normal" font-weight="normal" text-decoration="none" x="461" y="719.5">-deviceType: String</text></g></g><g transform="translate(-62,-78) scale(1,1)"><rect fill="#C0C0C0" stroke="none" x="151" y="223" width="104.37353515625" height="102" opacity="0.2"/></g><g transform="translate(-62,-78) scale(1,1)"><rect fill="#ffffff" stroke="none" x="144" y="216" width="104.37353515625" height="102"/></g><g transform="translate(-62,-78) scale(1,1)"><path fill="none" stroke="#000000" d="M 144 216 L 248.37353515625 216 L 248.37353515625 318 L 144 318 L 144 216 Z Z" stroke-miterlimit="10"/></g><g transform="translate(-62,-78) scale(1,1)"><path fill="none" stroke="#000000" d="M 144 241 L 248.37353515625 241" stroke-miterlimit="10"/></g><g transform="translate(-62,-78) scale(1,1)"><path fill="none" stroke="#000000" d="M 144 309 L 248.37353515625 309" stroke-miterlimit="10"/></g><g transform="translate(-62,-78) scale(1,1)"><g><path fill="none" stroke="none"/><text fill="#000000" stroke="none" font-family="Arial" font-size="13px" font-style="normal" font-weight="bold" text-decoration="none" x="174.50634765625" y="235.5">Subject</text></g></g><g transform="translate(-62,-78) scale(1,1)"><g><path fill="none" stroke="none"/><text fill="#000000" stroke="none" font-family="Arial" font-size="13px" font-style="normal" font-weight="normal" text-decoration="none" x="149" y="258.5">-id: int</text></g></g><g transform="translate(-62,-78) scale(1,1)"><g><path fill="none" stroke="none"/><text fill="#000000" stroke="none" font-family="Arial" font-size="13px" font-style="normal" font-weight="normal" text-decoration="none" x="149" y="273.5">-category: String</text></g></g><g transform="translate(-62,-78) scale(1,1)"><g><path fill="none" stroke="none"/><text fill="#000000" stroke="none" font-family="Arial" font-size="13px" font-style="normal" font-weight="normal" text-decoration="none" x="149" y="288.5">-subject: String</text></g></g><g transform="translate(-62,-78) scale(1,1)"><g><path fill="none" stroke="none"/><text fill="#000000" stroke="none" font-family="Arial" font-size="13px" font-style="normal" font-weight="normal" text-decoration="none" x="149" y="303.5">+imageID: int</text></g></g><g transform="translate(-62,-78) scale(1,1)"><rect fill="#C0C0C0" stroke="none" x="79" y="591" width="162.9052734375" height="190" opacity="0.2"/></g><g transform="translate(-62,-78) scale(1,1)"><rect fill="#ffffff" stroke="none" x="72" y="584" width="162.9052734375" height="190"/></g><g transform="translate(-62,-78) scale(1,1)"><path fill="none" stroke="#000000" d="M 72 584 L 234.9052734375 584 L 234.9052734375 774 L 72 774 L 72 584 Z Z" stroke-miterlimit="10"/></g><g transform="translate(-62,-78) scale(1,1)"><path fill="none" stroke="#000000" d="M 72 609 L 234.9052734375 609" stroke-miterlimit="10"/></g><g transform="translate(-62,-78) scale(1,1)"><path fill="none" stroke="#000000" d="M 72 752 L 234.9052734375 752" stroke-miterlimit="10"/></g><g transform="translate(-62,-78) scale(1,1)"><g><path fill="none" stroke="none"/><text fill="#000000" stroke="none" font-family="Arial" font-size="13px" font-style="normal" font-weight="bold" text-decoration="none" x="128.877685546875" y="603.5">Location</text></g></g><g transform="translate(-62,-78) scale(1,1)"><g><path fill="none" stroke="none"/><text fill="#000000" stroke="none" font-family="Arial" font-size="13px" font-style="normal" font-weight="normal" text-decoration="none" x="77" y="626.5">-idLocation: int</text></g></g><g transform="translate(-62,-78) scale(1,1)"><g><path fill="none" stroke="none"/><text fill="#000000" stroke="none" font-family="Arial" font-size="13px" font-style="normal" font-weight="normal" text-decoration="none" x="77" y="641.5">-country: String</text></g></g><g transform="translate(-62,-78) scale(1,1)"><g><path fill="none" stroke="none"/><text fill="#000000" stroke="none" font-family="Arial" font-size="13px" font-style="normal" font-weight="normal" text-decoration="none" x="77" y="656.5">-state: String</text></g></g><g transform="translate(-62,-78) scale(1,1)"><g><path fill="none" stroke="none"/><text fill="#000000" stroke="none" font-family="Arial" font-size="13px" font-style="normal" font-weight="normal" text-decoration="none" x="77" y="671.5">-city: String</text></g></g><g transform="translate(-62,-78) scale(1,1)"><g><path fill="none" stroke="none"/><text fill="#000000" stroke="none" font-family="Arial" font-size="13px" font-style="normal" font-weight="normal" text-decoration="none" x="77" y="686.5">-postcode: String</text></g></g><g transform="translate(-62,-78) scale(1,1)"><g><path fill="none" stroke="none"/><text fill="#000000" stroke="none" font-family="Arial" font-size="13px" font-style="normal" font-weight="normal" text-decoration="none" x="77" y="701.5">-formatted_address: String</text></g></g><g transform="translate(-62,-78) scale(1,1)"><g><path fill="none" stroke="none"/><text fill="#000000" stroke="none" font-family="Arial" font-size="13px" font-style="normal" font-weight="normal" text-decoration="none" x="77" y="716.5">-road: String</text></g></g><g transform="translate(-62,-78) scale(1,1)"><g><path fill="none" stroke="none"/><text fill="#000000" stroke="none" font-family="Arial" font-size="13px" font-style="normal" font-weight="normal" text-decoration="none" x="77" y="731.5">-latitude: BigDecimal</text></g></g><g transform="translate(-62,-78) scale(1,1)"><g><path fill="none" stroke="none"/><text fill="#000000" stroke="none" font-family="Arial" font-size="13px" font-style="normal" font-weight="normal" text-decoration="none" x="77" y="746.5">-longitude: BigDecimal</text></g></g><g transform="translate(-62,-78) scale(1,1)"><g><path fill="none" stroke="none"/><text fill="#000000" stroke="none" font-family="Arial" font-size="13px" font-style="normal" font-weight="normal" text-decoration="none" x="77" y="769.5">+toString(): String</text></g></g><g transform="translate(-62,-78) scale(1,1)"><path fill="none" stroke="#000000" d="M 720 392 L 720 372 L 766 372 L 766 392" stroke-miterlimit="10"/></g><g transform="translate(-62,-78) scale(1,1)"><g><path fill="none" stroke="none"/><text fill="#000000" stroke="none" font-family="Arial" font-size="13px" font-style="normal" font-weight="normal" text-decoration="none" x="678.5" y="364.5">+follows</text></g></g><g transform="translate(-62,-78) scale(1,1)"><g><path fill="none" stroke="none"/><text fill="#000000" stroke="none" font-family="Arial" font-size="13px" font-style="normal" font-weight="normal" text-decoration="none" x="694.5" y="388.5">0..*</text></g></g><g transform="translate(-62,-78) scale(1,1)"><g><path fill="none" stroke="none"/><text fill="#000000" stroke="none" font-family="Arial" font-size="13px" font-style="normal" font-weight="normal" text-decoration="none" x="758.30908203125" y="363.5">+is followed</text></g></g><g transform="translate(-62,-78) scale(1,1)"><g><path fill="none" stroke="none"/><text fill="#000000" stroke="none" font-family="Arial" font-size="13px" font-style="normal" font-weight="normal" text-decoration="none" x="767.5" y="388.5">0..*</text></g></g><g transform="translate(-62,-78) scale(1,1)"><path fill="none" stroke="#000000" d="M 365 400 L 624 400" stroke-miterlimit="10"/></g><g transform="translate(-62,-78) scale(1,1)"><g><path fill="none" stroke="none"/><text fill="#000000" stroke="none" font-family="Arial" font-size="13px" font-style="normal" font-weight="normal" text-decoration="none" x="366.5" y="396.5">+mentioned in</text></g></g><g transform="translate(-62,-78) scale(1,1)"><g><path fill="none" stroke="none"/><text fill="#000000" stroke="none" font-family="Arial" font-size="13px" font-style="normal" font-weight="normal" text-decoration="none" x="376.5" y="418.5">0..*</text></g></g><g transform="translate(-62,-78) scale(1,1)"><g><path fill="none" stroke="none"/><text fill="#000000" stroke="none" font-family="Arial" font-size="13px" font-style="normal" font-weight="normal" text-decoration="none" x="559.5" y="395.5">+mention</text></g></g><g transform="translate(-62,-78) scale(1,1)"><g><path fill="none" stroke="none"/><text fill="#000000" stroke="none" font-family="Arial" font-size="13px" font-style="normal" font-weight="normal" text-decoration="none" x="592.5" y="418.5">0..*</text></g></g><g transform="translate(-62,-78) scale(1,1)"><path fill="none" stroke="#000000" d="M 541 284 L 624 284 M 624 284 A 8 8 0 0 1 632 292 L 632 392" stroke-miterlimit="10"/></g><g transform="translate(-62,-78) scale(1,1)"><g><path fill="none" stroke="none"/><text fill="#000000" stroke="none" font-family="Arial" font-size="13px" font-style="normal" font-weight="normal" text-decoration="none" x="574.5" y="332.5">+creates</text></g></g><g transform="translate(-62,-78) scale(1,1)"><g><path fill="none" stroke="none"/><text fill="#000000" stroke="none" font-family="Arial" font-size="13px" font-style="normal" font-weight="normal" text-decoration="none" x="548.5" y="276.5">0..*</text></g></g><g transform="translate(-62,-78) scale(1,1)"><g><path fill="none" stroke="none"/><text fill="#000000" stroke="none" font-family="Arial" font-size="13px" font-style="normal" font-weight="normal" text-decoration="none" x="638.5" y="388.5">1..1</text></g></g><g transform="translate(-62,-78) scale(1,1)"><path fill="none" stroke="#000000" d="M 624 520 L 365 520" stroke-miterlimit="10"/></g><g transform="translate(-62,-78) scale(1,1)"><g><path fill="none" stroke="none"/><text fill="#000000" stroke="none" font-family="Arial" font-size="13px" font-style="normal" font-weight="normal" text-decoration="none" x="572.5" y="540.5">+liked by</text></g></g><g transform="translate(-62,-78) scale(1,1)"><g><path fill="none" stroke="none"/><text fill="#000000" stroke="none" font-family="Arial" font-size="13px" font-style="normal" font-weight="normal" text-decoration="none" x="592.5" y="513.5">0..*</text></g></g><g transform="translate(-62,-78) scale(1,1)"><g><path fill="none" stroke="none"/><text fill="#000000" stroke="none" font-family="Arial" font-size="13px" font-style="normal" font-weight="normal" text-decoration="none" x="373.5" y="540.5">+likes</text></g></g><g transform="translate(-62,-78) scale(1,1)"><g><path fill="none" stroke="none"/><text fill="#000000" stroke="none" font-family="Arial" font-size="13px" font-style="normal" font-weight="normal" text-decoration="none" x="376.5" y="513.5">0..*</text></g></g><g transform="translate(-62,-78) scale(1,1)"><path fill="none" stroke="#000000" d="M 306 576 L 306 646 M 306 646 A 8 8 0 0 0 314 654 L 456 654" stroke-miterlimit="10"/></g><g transform="translate(-62,-78) scale(1,1)"><g><path fill="none" stroke="none"/><text fill="#000000" stroke="none" font-family="Arial" font-size="13px" font-style="normal" font-weight="normal" text-decoration="none" x="310.5" y="620.5">+snapped with</text></g></g><g transform="translate(-62,-78) scale(1,1)"><g><path fill="none" stroke="none"/><text fill="#000000" stroke="none" font-family="Arial" font-size="13px" font-style="normal" font-weight="normal" text-decoration="none" x="283.5" y="603.5">0..*</text></g></g><g transform="translate(-62,-78) scale(1,1)"><g><path fill="none" stroke="none"/><text fill="#000000" stroke="none" font-family="Arial" font-size="13px" font-style="normal" font-weight="normal" text-decoration="none" x="423.5" y="672.5">1..1</text></g></g><g transform="translate(-62,-78) scale(1,1)"><path fill="none" stroke="#000000" d="M 160 584 L 160 496 M 160 496 A 8 8 0 0 1 168 488 L 248 488" stroke-miterlimit="10"/></g><g transform="translate(-62,-78) scale(1,1)"><g><path fill="none" stroke="none"/><text fill="#000000" stroke="none" font-family="Arial" font-size="13px" font-style="normal" font-weight="normal" text-decoration="none" x="79.5" y="548.5">+snapped in</text></g></g><g transform="translate(-62,-78) scale(1,1)"><g><path fill="none" stroke="none"/><text fill="#000000" stroke="none" font-family="Arial" font-size="13px" font-style="normal" font-weight="normal" text-decoration="none" x="167.5" y="572.5">0..1</text></g></g><g transform="translate(-62,-78) scale(1,1)"><g><path fill="none" stroke="none"/><text fill="#000000" stroke="none" font-family="Arial" font-size="13px" font-style="normal" font-weight="normal" text-decoration="none" x="215.5" y="506.5">1..1</text></g></g><g transform="translate(-62,-78) scale(1,1)"><path fill="none" stroke="#000000" d="M 192 318 L 192 376 M 192 376 A 8 8 0 0 0 200 384 L 248 384" stroke-miterlimit="10"/></g><g transform="translate(-62,-78) scale(1,1)"><g><path fill="none" stroke="none"/><text fill="#000000" stroke="none" font-family="Arial" font-size="13px" font-style="normal" font-weight="normal" text-decoration="none" x="198.5" y="375.5">+contains</text></g></g><g transform="translate(-62,-78) scale(1,1)"><g><path fill="none" stroke="none"/><text fill="#000000" stroke="none" font-family="Arial" font-size="13px" font-style="normal" font-weight="normal" text-decoration="none" x="159.5" y="339.5">0..5</text></g></g><g transform="translate(-62,-78) scale(1,1)"><g><path fill="none" stroke="none"/><text fill="#000000" stroke="none" font-family="Arial" font-size="13px" font-style="normal" font-weight="normal" text-decoration="none" x="216.5" y="402.5">1..*</text></g></g><g transform="translate(-62,-78) scale(1,1)"><path fill="none" stroke="#000000" d="M 336 384 L 336 312 M 336 312 A 8 8 0 0 1 344 304 L 424 304" stroke-miterlimit="10"/></g><g transform="translate(-62,-78) scale(1,1)"><g><path fill="none" stroke="none"/><text fill="#000000" stroke="none" font-family="Arial" font-size="13px" font-style="normal" font-weight="normal" text-decoration="none" x="307.5" y="295.5">+included</text></g></g><g transform="translate(-62,-78) scale(1,1)"><g><path fill="none" stroke="none"/><text fill="#000000" stroke="none" font-family="Arial" font-size="13px" font-style="normal" font-weight="normal" text-decoration="none" x="311.5" y="379.5">0..*</text></g></g><g transform="translate(-62,-78) scale(1,1)"><g><path fill="none" stroke="none"/><text fill="#000000" stroke="none" font-family="Arial" font-size="13px" font-style="normal" font-weight="normal" text-decoration="none" x="392.5" y="291.5">0..*</text></g></g><g transform="translate(-62,-78) scale(1,1)"><path fill="#ffffff" stroke="none" d="M 240 88 L 597 88 L 607 98 L 607 197 L 240 197 L 240 88"/></g><g transform="translate(-62,-78) scale(1,1)"><path fill="none" stroke="#000000" d="M 240 88 L 597 88 L 607 98 L 607 197 L 240 197 L 240 88 L 240 88" stroke-miterlimit="10"/></g><g transform="translate(-62,-78) scale(1,1)"><path fill="none" stroke="#000000" d="M 597 88 L 597 98 L 607 98 L 597 88" stroke-miterlimit="10"/></g><g transform="translate(-62,-78) scale(1,1)"><g><path fill="none" stroke="none"/><text fill="#000000" stroke="none" font-family="Arial" font-size="13px" font-style="normal" font-weight="normal" text-decoration="none" x="245" y="106">Nello schema fornito, ogni attributo contrassegnato con il</text><text fill="#000000" stroke="none" font-family="Arial" font-size="13px" font-style="normal" font-weight="normal" text-decoration="none" x="245" y="119">prefisso "-" (indicante che l'attributo è privato) avrà getter e</text><text fill="#000000" stroke="none" font-family="Arial" font-size="13px" font-style="normal" font-weight="normal" text-decoration="none" x="245" y="132">setter. Per mantenere l'aspetto pulito e leggibile dello</text><text fill="#000000" stroke="none" font-family="Arial" font-size="13px" font-style="normal" font-weight="normal" text-decoration="none" x="245" y="145">schema, i getter e setter non sono esplicitamente elencati.</text></g></g><g transform="translate(-62,-78) scale(1,1)"><g><path fill="none" stroke="none"/></g></g><g transform="translate(-62,-78) scale(1,1)"><g><path fill="none" stroke="none"/><text fill="#000000" stroke="none" font-family="Arial" font-size="13px" font-style="normal" font-weight="normal" text-decoration="none" x="245" y="162">Nel caso di un attributo con il formato "-Nome: Tipo":</text></g></g><g transform="translate(-62,-78) scale(1,1)"><g><path fill="none" stroke="none"/><text fill="#000000" stroke="none" font-family="Arial" font-size="13px" font-style="normal" font-weight="normal" text-decoration="none" x="245" y="177">Getter: +getNome(): Nome</text></g></g><g transform="translate(-62,-78) scale(1,1)"><g><path fill="none" stroke="none"/><text fill="#000000" stroke="none" font-family="Arial" font-size="13px" font-style="normal" font-weight="normal" text-decoration="none" x="245" y="192">Setter: +setNome(value: Tipo): void</text></g></g><g transform="translate(-62,-78) scale(1,1)"><path fill="none" stroke="#000000" d="M 365 464 L 624 464" stroke-miterlimit="10"/></g><g transform="translate(-62,-78) scale(1,1)"><g><path fill="none" stroke="none"/><text fill="#000000" stroke="none" font-family="Arial" font-size="13px" font-style="normal" font-weight="normal" text-decoration="none" x="366.5" y="455.5">+publish</text></g></g><g transform="translate(-62,-78) scale(1,1)"><g><path fill="none" stroke="none"/><text fill="#000000" stroke="none" font-family="Arial" font-size="13px" font-style="normal" font-weight="normal" text-decoration="none" x="375.5" y="482.5">0..1</text></g></g><g transform="translate(-62,-78) scale(1,1)"><g><path fill="none" stroke="none"/><text fill="#000000" stroke="none" font-family="Arial" font-size="13px" font-style="normal" font-weight="normal" text-decoration="none" x="534.5" y="454.5">+published by</text></g></g><g transform="translate(-62,-78) scale(1,1)"><g><path fill="none" stroke="none"/><text fill="#000000" stroke="none" font-family="Arial" font-size="13px" font-style="normal" font-weight="normal" text-decoration="none" x="591.5" y="482.5">0..1</text></g></g><g transform="translate(-62,-78) scale(1,1)"><path fill="none" stroke="#000000" d="M 577 664 L 640 664 M 640 664 A 8 8 0 0 0 648 656 L 648 567" stroke-miterlimit="10"/></g><g transform="translate(-62,-78) scale(1,1)"><g><path fill="none" stroke="none"/><text fill="#000000" stroke="none" font-family="Arial" font-size="13px" font-style="normal" font-weight="normal" text-decoration="none" x="654.5" y="652.5">+creates</text></g></g><g transform="translate(-62,-78) scale(1,1)"><g><path fill="none" stroke="none"/><text fill="#000000" stroke="none" font-family="Arial" font-size="13px" font-style="normal" font-weight="normal" text-decoration="none" x="588.5" y="682.5">*..1</text></g></g><g transform="translate(-62,-78) scale(1,1)"><g><path fill="none" stroke="none"/><text fill="#000000" stroke="none" font-family="Arial" font-size="13px" font-style="normal" font-weight="normal" text-decoration="none" x="655.5" y="587.5">1..*</text></g></g></g></svg>