<svg version="1.1" xmlns="http://www.w3.org/2000/svg" xmlns:xlink="http://www.w3.org/1999/xlink" width="777.58447265625" height="412"><defs/><g><g transform="translate(-182,-246) scale(1,1)"><rect fill="#C0C0C0" stroke="none" x="767" y="447" width="50.919921875" height="44" opacity="0.2"/></g><g transform="translate(-182,-246) scale(1,1)"><rect fill="#ffffff" stroke="none" x="760" y="440" width="50.919921875" height="44"/></g><g transform="translate(-182,-246) scale(1,1)"><path fill="none" stroke="#000000" d="M 760 440 L 810.919921875 440 L 810.919921875 484 L 760 484 L 760 440 Z Z" stroke-miterlimit="10"/></g><g transform="translate(-182,-246) scale(1,1)"><path fill="none" stroke="#000000" d="M 760 465 L 810.919921875 465" stroke-miterlimit="10"/></g><g transform="translate(-182,-246) scale(1,1)"><path fill="none" stroke="#000000" d="M 760 475 L 810.919921875 475" stroke-miterlimit="10"/></g><g transform="translate(-182,-246) scale(1,1)"><g><path fill="none" stroke="none"/><text fill="#000000" stroke="none" font-family="Arial" font-size="13px" font-style="normal" font-weight="bold" text-decoration="none" x="782.930419921875" y="459.5">*</text></g></g><g transform="translate(-182,-246) scale(1,1)"><rect fill="#C0C0C0" stroke="none" x="767" y="391" width="75.83378906250005" height="15" opacity="0.2"/></g><g transform="translate(-182,-246) scale(1,1)"><rect fill="#C0C0C0" stroke="none" x="767" y="405" width="189.58447265625" height="98" opacity="0.2"/></g><g transform="translate(-182,-246) scale(1,1)"><rect fill="#ffffff" stroke="none" x="760" y="399" width="189.58447265625" height="97"/></g><g transform="translate(-182,-246) scale(1,1)"><path fill="none" stroke="#000000" d="M 760 399 L 949.58447265625 399 L 949.58447265625 496 L 760 496 L 760 399 Z Z" stroke-miterlimit="10"/></g><g transform="translate(-182,-246) scale(1,1)"><rect fill="#ffffff" stroke="none" x="760" y="384" width="75.83378906250005" height="15"/></g><g transform="translate(-182,-246) scale(1,1)"><path fill="none" stroke="#000000" d="M 760 384 L 835.8337890625 384 L 835.8337890625 399 L 760 399 L 760 384 Z Z" stroke-miterlimit="10"/></g><g transform="translate(-182,-246) scale(1,1)"><rect fill="#ffffff" stroke="none" x="760" y="398" width="189.58447265625" height="98"/></g><g transform="translate(-182,-246) scale(1,1)"><path fill="none" stroke="#000000" d="M 760 398 L 949.58447265625 398 L 949.58447265625 496 L 760 496 L 760 398 Z Z" stroke-miterlimit="10"/></g><g transform="translate(-182,-246) scale(1,1)"><g><path fill="none" stroke="none"/><text fill="#000000" stroke="none" font-family="Arial" font-size="13px" font-style="normal" font-weight="bold" text-decoration="none" x="770.615966796875" y="418.5">ImplementationPostgresDAO</text></g></g><g transform="translate(-182,-246) scale(1,1)"><rect fill="#C0C0C0" stroke="none" x="599" y="399" width="35.200000000000045" height="15" opacity="0.2"/></g><g transform="translate(-182,-246) scale(1,1)"><rect fill="#C0C0C0" stroke="none" x="599" y="413" width="88" height="82" opacity="0.2"/></g><g transform="translate(-182,-246) scale(1,1)"><rect fill="#ffffff" stroke="none" x="592" y="407" width="88" height="81"/></g><g transform="translate(-182,-246) scale(1,1)"><path fill="none" stroke="#000000" d="M 592 407 L 680 407 L 680 488 L 592 488 L 592 407 Z Z" stroke-miterlimit="10"/></g><g transform="translate(-182,-246) scale(1,1)"><rect fill="#ffffff" stroke="none" x="592" y="392" width="35.200000000000045" height="15"/></g><g transform="translate(-182,-246) scale(1,1)"><path fill="none" stroke="#000000" d="M 592 392 L 627.2 392 L 627.2 407 L 592 407 L 592 392 Z Z" stroke-miterlimit="10"/></g><g transform="translate(-182,-246) scale(1,1)"><rect fill="#ffffff" stroke="none" x="592" y="406" width="88" height="82"/></g><g transform="translate(-182,-246) scale(1,1)"><path fill="none" stroke="#000000" d="M 592 406 L 680 406 L 680 488 L 592 488 L 592 406 Z Z" stroke-miterlimit="10"/></g><g transform="translate(-182,-246) scale(1,1)"><g><path fill="none" stroke="none"/><text fill="#000000" stroke="none" font-family="Arial" font-size="13px" font-style="normal" font-weight="bold" text-decoration="none" x="621.91455078125" y="426.5">DAO</text></g></g><g transform="translate(-182,-246) scale(1,1)"><rect fill="#C0C0C0" stroke="none" x="711" y="527" width="64" height="15" opacity="0.2"/></g><g transform="translate(-182,-246) scale(1,1)"><rect fill="#C0C0C0" stroke="none" x="711" y="541" width="160" height="98" opacity="0.2"/></g><g transform="translate(-182,-246) scale(1,1)"><rect fill="#ffffff" stroke="none" x="704" y="535" width="160" height="97"/></g><g transform="translate(-182,-246) scale(1,1)"><path fill="none" stroke="#000000" d="M 704 535 L 864 535 L 864 632 L 704 632 L 704 535 Z Z" stroke-miterlimit="10"/></g><g transform="translate(-182,-246) scale(1,1)"><rect fill="#ffffff" stroke="none" x="704" y="520" width="64" height="15"/></g><g transform="translate(-182,-246) scale(1,1)"><path fill="none" stroke="#000000" d="M 704 520 L 768 520 L 768 535 L 704 535 L 704 520 Z Z" stroke-miterlimit="10"/></g><g transform="translate(-182,-246) scale(1,1)"><rect fill="#ffffff" stroke="none" x="704" y="534" width="160" height="98"/></g><g transform="translate(-182,-246) scale(1,1)"><path fill="none" stroke="#000000" d="M 704 534 L 864 534 L 864 632 L 704 632 L 704 534 Z Z" stroke-miterlimit="10"/></g><g transform="translate(-182,-246) scale(1,1)"><g><path fill="none" stroke="none"/><text fill="#000000" stroke="none" font-family="Arial" font-size="13px" font-style="normal" font-weight="bold" text-decoration="none" x="751.115966796875" y="554.5">Connection</text></g></g><g transform="translate(-182,-246) scale(1,1)"><rect fill="#C0C0C0" stroke="none" x="415" y="399" width="51.19999999999999" height="15" opacity="0.2"/></g><g transform="translate(-182,-246) scale(1,1)"><rect fill="#C0C0C0" stroke="none" x="415" y="413" width="128" height="98" opacity="0.2"/></g><g transform="translate(-182,-246) scale(1,1)"><rect fill="#ffffff" stroke="none" x="408" y="407" width="128" height="97"/></g><g transform="translate(-182,-246) scale(1,1)"><path fill="none" stroke="#000000" d="M 408 407 L 536 407 L 536 504 L 408 504 L 408 407 Z Z" stroke-miterlimit="10"/></g><g transform="translate(-182,-246) scale(1,1)"><rect fill="#ffffff" stroke="none" x="408" y="392" width="51.19999999999999" height="15"/></g><g transform="translate(-182,-246) scale(1,1)"><path fill="none" stroke="#000000" d="M 408 392 L 459.2 392 L 459.2 407 L 408 407 L 408 392 Z Z" stroke-miterlimit="10"/></g><g transform="translate(-182,-246) scale(1,1)"><rect fill="#ffffff" stroke="none" x="408" y="406" width="128" height="98"/></g><g transform="translate(-182,-246) scale(1,1)"><path fill="none" stroke="#000000" d="M 408 406 L 536 406 L 536 504 L 408 504 L 408 406 Z Z" stroke-miterlimit="10"/></g><g transform="translate(-182,-246) scale(1,1)"><g><path fill="none" stroke="none"/><text fill="#000000" stroke="none" font-family="Arial" font-size="13px" font-style="normal" font-weight="bold" text-decoration="none" x="443.82275390625" y="426.5">Controller</text></g></g><g transform="translate(-182,-246) scale(1,1)"><rect fill="#C0C0C0" stroke="none" x="399" y="543" width="64" height="15" opacity="0.2"/></g><g transform="translate(-182,-246) scale(1,1)"><rect fill="#C0C0C0" stroke="none" x="399" y="557" width="160" height="90" opacity="0.2"/></g><g transform="translate(-182,-246) scale(1,1)"><rect fill="#ffffff" stroke="none" x="392" y="551" width="160" height="89"/></g><g transform="translate(-182,-246) scale(1,1)"><path fill="none" stroke="#000000" d="M 392 551 L 552 551 L 552 640 L 392 640 L 392 551 Z Z" stroke-miterlimit="10"/></g><g transform="translate(-182,-246) scale(1,1)"><rect fill="#ffffff" stroke="none" x="392" y="536" width="64" height="15"/></g><g transform="translate(-182,-246) scale(1,1)"><path fill="none" stroke="#000000" d="M 392 536 L 456 536 L 456 551 L 392 551 L 392 536 Z Z" stroke-miterlimit="10"/></g><g transform="translate(-182,-246) scale(1,1)"><rect fill="#ffffff" stroke="none" x="392" y="550" width="160" height="90"/></g><g transform="translate(-182,-246) scale(1,1)"><path fill="none" stroke="#000000" d="M 392 550 L 552 550 L 552 640 L 392 640 L 392 550 Z Z" stroke-miterlimit="10"/></g><g transform="translate(-182,-246) scale(1,1)"><g><path fill="none" stroke="none"/><text fill="#000000" stroke="none" font-family="Arial" font-size="13px" font-style="normal" font-weight="bold" text-decoration="none" x="454.29638671875" y="570.5">Model</text></g></g><g transform="translate(-182,-246) scale(1,1)"><rect fill="#C0C0C0" stroke="none" x="199" y="375" width="70.39999999999998" height="15" opacity="0.2"/></g><g transform="translate(-182,-246) scale(1,1)"><rect fill="#C0C0C0" stroke="none" x="199" y="389" width="176" height="98" opacity="0.2"/></g><g transform="translate(-182,-246) scale(1,1)"><rect fill="#ffffff" stroke="none" x="192" y="383" width="176" height="97"/></g><g transform="translate(-182,-246) scale(1,1)"><path fill="none" stroke="#000000" d="M 192 383 L 368 383 L 368 480 L 192 480 L 192 383 Z Z" stroke-miterlimit="10"/></g><g transform="translate(-182,-246) scale(1,1)"><rect fill="#ffffff" stroke="none" x="192" y="368" width="70.39999999999998" height="15"/></g><g transform="translate(-182,-246) scale(1,1)"><path fill="none" stroke="#000000" d="M 192 368 L 262.4 368 L 262.4 383 L 192 383 L 192 368 Z Z" stroke-miterlimit="10"/></g><g transform="translate(-182,-246) scale(1,1)"><rect fill="#ffffff" stroke="none" x="192" y="382" width="176" height="98"/></g><g transform="translate(-182,-246) scale(1,1)"><path fill="none" stroke="#000000" d="M 192 382 L 368 382 L 368 480 L 192 480 L 192 382 Z Z" stroke-miterlimit="10"/></g><g transform="translate(-182,-246) scale(1,1)"><g><path fill="none" stroke="none"/><text fill="#000000" stroke="none" font-family="Arial" font-size="13px" font-style="normal" font-weight="bold" text-decoration="none" x="267.36181640625" y="402.5">Utils</text></g></g><g transform="translate(-182,-246) scale(1,1)"><rect fill="#C0C0C0" stroke="none" x="463" y="271" width="41.60000000000002" height="15" opacity="0.2"/></g><g transform="translate(-182,-246) scale(1,1)"><rect fill="#C0C0C0" stroke="none" x="463" y="285" width="104" height="82" opacity="0.2"/></g><g transform="translate(-182,-246) scale(1,1)"><rect fill="#ffffff" stroke="none" x="456" y="279" width="104" height="81"/></g><g transform="translate(-182,-246) scale(1,1)"><path fill="none" stroke="#000000" d="M 456 279 L 560 279 L 560 360 L 456 360 L 456 279 Z Z" stroke-miterlimit="10"/></g><g transform="translate(-182,-246) scale(1,1)"><rect fill="#ffffff" stroke="none" x="456" y="264" width="41.60000000000002" height="15"/></g><g transform="translate(-182,-246) scale(1,1)"><path fill="none" stroke="#000000" d="M 456 264 L 497.6 264 L 497.6 279 L 456 279 L 456 264 Z Z" stroke-miterlimit="10"/></g><g transform="translate(-182,-246) scale(1,1)"><rect fill="#ffffff" stroke="none" x="456" y="278" width="104" height="82"/></g><g transform="translate(-182,-246) scale(1,1)"><path fill="none" stroke="#000000" d="M 456 278 L 560 278 L 560 360 L 456 360 L 456 278 Z Z" stroke-miterlimit="10"/></g><g transform="translate(-182,-246) scale(1,1)"><g><path fill="none" stroke="none"/><text fill="#000000" stroke="none" font-family="Arial" font-size="13px" font-style="normal" font-weight="bold" text-decoration="none" x="493.911376953125" y="298.5">View</text></g></g><g transform="translate(-182,-246) scale(1,1)"><path fill="none" stroke="#000000" d="M 808 496 L 808 520" stroke-miterlimit="10" stroke-dasharray="3"/></g><g transform="translate(-182,-246) scale(1,1)"><path fill="none" stroke="#000000" d="M 803.790482243984 509.83732514237585 L 808 520 L 812.209517756016 509.83732514237585" stroke-miterlimit="10"/></g><g transform="translate(-182,-246) scale(1,1)"><path fill="none" stroke="#000000" d="M 537 454 L 623.7099609375 453.822509765625" stroke-miterlimit="10"/></g><g transform="translate(-182,-246) scale(1,1)"><g><path fill="none" stroke="none"/><text fill="#000000" stroke="none" font-family="Arial" font-size="13px" font-style="normal" font-weight="normal" text-decoration="none" x="413" y="594">Contiene le classi</text><text fill="#000000" stroke="none" font-family="Arial" font-size="13px" font-style="normal" font-weight="normal" text-decoration="none" x="413" y="607">che definiscono i</text><text fill="#000000" stroke="none" font-family="Arial" font-size="13px" font-style="normal" font-weight="normal" text-decoration="none" x="413" y="620">modelli di dati e le</text><text fill="#000000" stroke="none" font-family="Arial" font-size="13px" font-style="normal" font-weight="normal" text-decoration="none" x="413" y="633">relazioni del sistema</text></g></g><g transform="translate(-182,-246) scale(1,1)"><g><path fill="none" stroke="none"/><text fill="#000000" stroke="none" font-family="Arial" font-size="13px" font-style="normal" font-weight="normal" text-decoration="none" x="717" y="578">Permette di stabilire e</text><text fill="#000000" stroke="none" font-family="Arial" font-size="13px" font-style="normal" font-weight="normal" text-decoration="none" x="717" y="591">gestire una</text><text fill="#000000" stroke="none" font-family="Arial" font-size="13px" font-style="normal" font-weight="normal" text-decoration="none" x="717" y="604">connessione al</text><text fill="#000000" stroke="none" font-family="Arial" font-size="13px" font-style="normal" font-weight="normal" text-decoration="none" x="717" y="617">database</text></g></g><g transform="translate(-182,-246) scale(1,1)"><path fill="none" stroke="#000000" d="M 759 462 L 646.7099609375 455.2285970052083" stroke-miterlimit="10"/></g><g transform="translate(-182,-246) scale(1,1)"><path fill="#C0C0C0" stroke="none" d="M 630.7099609375 458.5 C 630.7099609375 452.1487248 635.8586857375 447 642.2099609375 447 C 648.5612361375 447 653.7099609375 452.1487248 653.7099609375 458.5 C 653.7099609375 464.8512752 648.5612361375 470 642.2099609375 470 C 635.8586857375 470 630.7099609375 464.8512752 630.7099609375 458.5 Z" opacity="0.2"/></g><g transform="translate(-182,-246) scale(1,1)"><path fill="none" stroke="#000000" d="M 637.7891596879178 462.1566387516713 A 11.5 11.5 0 0 1 632.2108403120822 439.8433612483287" stroke-miterlimit="10"/></g><g transform="translate(-182,-246) scale(1,1)"><path fill="#ffffff" stroke="none" d="M 626.7099609375 451.5 C 626.7099609375 446.8055792 630.5155401375 443 635.2099609375 443 C 639.9043817375 443 643.7099609375 446.8055792 643.7099609375 451.5 C 643.7099609375 456.1944208 639.9043817375 460 635.2099609375 460 C 630.5155401375 460 626.7099609375 456.1944208 626.7099609375 451.5 Z"/></g><g transform="translate(-182,-246) scale(1,1)"><path fill="none" stroke="#000000" d="M 626.7099609375 451.5 C 626.7099609375 446.8055792 630.5155401375 443 635.2099609375 443 C 639.9043817375 443 643.7099609375 446.8055792 643.7099609375 451.5 C 643.7099609375 456.1944208 639.9043817375 460 635.2099609375 460 C 630.5155401375 460 626.7099609375 456.1944208 626.7099609375 451.5 Z" stroke-miterlimit="10"/></g><g transform="translate(-182,-246) scale(1,1)"><g><path fill="none" stroke="none"/><text fill="#000000" stroke="none" font-family="Arial" font-size="13px" font-style="normal" font-weight="bold" text-decoration="none" x="632.680419921875" y="482.5">*</text></g></g><g transform="translate(-182,-246) scale(1,1)"><path fill="none" stroke="#000000" d="M 472 505 L 472 535" stroke-miterlimit="10" stroke-dasharray="3"/></g><g transform="translate(-182,-246) scale(1,1)"><path fill="none" stroke="#000000" d="M 467.790482243984 524.8373251423759 L 472 535 L 476.209517756016 524.8373251423759" stroke-miterlimit="10"/></g><g transform="translate(-182,-246) scale(1,1)"><path fill="none" stroke="#000000" d="M 407 440 L 369 435" stroke-miterlimit="10" stroke-dasharray="3"/></g><g transform="translate(-182,-246) scale(1,1)"><path fill="none" stroke="#000000" d="M 379.62497822881534 432.15222233360817 L 369 435 L 378.526677054772 440.49931125633753" stroke-miterlimit="10"/></g><g transform="translate(-182,-246) scale(1,1)"><g><path fill="none" stroke="none"/><text fill="#000000" stroke="none" font-family="Arial" font-size="13px" font-style="normal" font-weight="normal" text-decoration="none" x="197" y="426">Include funzioni di utilità che</text><text fill="#000000" stroke="none" font-family="Arial" font-size="13px" font-style="normal" font-weight="normal" text-decoration="none" x="197" y="439">forniscono servizi comuni a</text><text fill="#000000" stroke="none" font-family="Arial" font-size="13px" font-style="normal" font-weight="normal" text-decoration="none" x="197" y="452">diverse parti</text><text fill="#000000" stroke="none" font-family="Arial" font-size="13px" font-style="normal" font-weight="normal" text-decoration="none" x="197" y="465">dell'applicazione</text></g></g><g transform="translate(-182,-246) scale(1,1)"><g><path fill="none" stroke="none"/><text fill="#000000" stroke="none" font-family="Arial" font-size="13px" font-style="normal" font-weight="normal" text-decoration="none" x="421" y="450">Contiene le classi</text><text fill="#000000" stroke="none" font-family="Arial" font-size="13px" font-style="normal" font-weight="normal" text-decoration="none" x="421" y="463">responsabili della</text><text fill="#000000" stroke="none" font-family="Arial" font-size="13px" font-style="normal" font-weight="normal" text-decoration="none" x="421" y="476">logica di controllo</text><text fill="#000000" stroke="none" font-family="Arial" font-size="13px" font-style="normal" font-weight="normal" text-decoration="none" x="421" y="489">dell'applicazione.</text></g></g><g transform="translate(-182,-246) scale(1,1)"><g><path fill="none" stroke="none"/><text fill="#000000" stroke="none" font-family="Arial" font-size="13px" font-style="normal" font-weight="normal" text-decoration="none" x="469" y="322">Rappresenta</text><text fill="#000000" stroke="none" font-family="Arial" font-size="13px" font-style="normal" font-weight="normal" text-decoration="none" x="469" y="335">l'interfaccia</text><text fill="#000000" stroke="none" font-family="Arial" font-size="13px" font-style="normal" font-weight="normal" text-decoration="none" x="469" y="348">dell'utente. </text></g></g><g transform="translate(-182,-246) scale(1,1)"><g><path fill="none" stroke="none"/><text fill="#000000" stroke="none" font-family="Arial" font-size="13px" font-style="normal" font-weight="normal" text-decoration="none" x="773" y="442">Contiene l'implementazione</text><text fill="#000000" stroke="none" font-family="Arial" font-size="13px" font-style="normal" font-weight="normal" text-decoration="none" x="773" y="455">delle funzioni di accesso al</text><text fill="#000000" stroke="none" font-family="Arial" font-size="13px" font-style="normal" font-weight="normal" text-decoration="none" x="773" y="468">database per il DBMS</text><text fill="#000000" stroke="none" font-family="Arial" font-size="13px" font-style="normal" font-weight="normal" text-decoration="none" x="773" y="481">Postgres</text></g></g><g transform="translate(-182,-246) scale(1,1)"><path fill="none" stroke="#000000" d="M 495 361 L 487 391" stroke-miterlimit="10" stroke-dasharray="3"/></g><g transform="translate(-182,-246) scale(1,1)"><path fill="none" stroke="#000000" d="M 485.5511586058638 380.0958329701606 L 487 391 L 493.6859248753328 382.2651039753523" stroke-miterlimit="10"/></g></g></svg>