<svg version="1.1" xmlns="http://www.w3.org/2000/svg" xmlns:xlink="http://www.w3.org/1999/xlink" width="828.34716796875" height="685"><defs/><g><g transform="translate(-230,-142) scale(1,1)"><rect fill="#C0C0C0" stroke="none" x="815" y="351" width="127.16162109375" height="162" opacity="0.2"/></g><g transform="translate(-230,-142) scale(1,1)"><rect fill="#ffffff" stroke="none" x="808" y="344" width="127.16162109375" height="162"/></g><g transform="translate(-230,-142) scale(1,1)"><path fill="none" stroke="#000000" d="M 808 344 L 935.16162109375 344 L 935.16162109375 506 L 808 506 L 808 344 Z Z" stroke-miterlimit="10"/></g><g transform="translate(-230,-142) scale(1,1)"><path fill="none" stroke="#000000" d="M 808 369 L 935.16162109375 369" stroke-miterlimit="10"/></g><g transform="translate(-230,-142) scale(1,1)"><path fill="none" stroke="#000000" d="M 808 497 L 935.16162109375 497" stroke-miterlimit="10"/></g><g transform="translate(-230,-142) scale(1,1)"><g><path fill="none" stroke="none"/><text fill="#000000" stroke="none" font-family="Arial" font-size="13px" font-style="normal" font-weight="bold" text-decoration="none" x="848.094482421875" y="363.5">Account</text></g></g><g transform="translate(-230,-142) scale(1,1)"><g><path fill="none" stroke="none"/><text fill="#000000" stroke="none" font-family="Arial" font-size="13px" font-style="normal" font-weight="normal" text-decoration="none" x="813" y="386.5">+username: String</text></g></g><g transform="translate(-230,-142) scale(1,1)"><g><path fill="none" stroke="none"/><text fill="#000000" stroke="none" font-family="Arial" font-size="13px" font-style="normal" font-weight="normal" text-decoration="none" x="813" y="401.5">+email: String</text></g></g><g transform="translate(-230,-142) scale(1,1)"><g><path fill="none" stroke="none"/><text fill="#000000" stroke="none" font-family="Arial" font-size="13px" font-style="normal" font-weight="normal" text-decoration="none" x="813" y="416.5">+name: String</text></g></g><g transform="translate(-230,-142) scale(1,1)"><g><path fill="none" stroke="none"/><text fill="#000000" stroke="none" font-family="Arial" font-size="13px" font-style="normal" font-weight="normal" text-decoration="none" x="813" y="431.5">+password: String</text></g></g><g transform="translate(-230,-142) scale(1,1)"><g><path fill="none" stroke="none"/><text fill="#000000" stroke="none" font-family="Arial" font-size="13px" font-style="normal" font-weight="normal" text-decoration="none" x="813" y="446.5">+gender: String[0..1]</text></g></g><g transform="translate(-230,-142) scale(1,1)"><g><path fill="none" stroke="none"/><text fill="#000000" stroke="none" font-family="Arial" font-size="13px" font-style="normal" font-weight="normal" text-decoration="none" x="813" y="461.5">+bio: Text[0..1]</text></g></g><g transform="translate(-230,-142) scale(1,1)"><g><path fill="none" stroke="none"/><text fill="#000000" stroke="none" font-family="Arial" font-size="13px" font-style="normal" font-weight="normal" text-decoration="none" x="813" y="476.5">+avatar: Blob[0..1]</text></g></g><g transform="translate(-230,-142) scale(1,1)"><g><path fill="none" stroke="none"/><text fill="#000000" stroke="none" font-family="Arial" font-size="13px" font-style="normal" font-weight="normal" text-decoration="none" x="813" y="491.5">+salt: String</text></g></g><g transform="translate(-230,-142) scale(1,1)"><rect fill="#C0C0C0" stroke="none" x="623" y="159" width="145" height="87" opacity="0.2"/></g><g transform="translate(-230,-142) scale(1,1)"><rect fill="#ffffff" stroke="none" x="616" y="152" width="145" height="87"/></g><g transform="translate(-230,-142) scale(1,1)"><path fill="none" stroke="#000000" d="M 616 152 L 761 152 L 761 239 L 616 239 L 616 152 Z Z" stroke-miterlimit="10"/></g><g transform="translate(-230,-142) scale(1,1)"><path fill="none" stroke="#000000" d="M 616 177 L 761 177" stroke-miterlimit="10"/></g><g transform="translate(-230,-142) scale(1,1)"><path fill="none" stroke="#000000" d="M 616 230 L 761 230" stroke-miterlimit="10"/></g><g transform="translate(-230,-142) scale(1,1)"><g><path fill="none" stroke="none"/><text fill="#000000" stroke="none" font-family="Arial" font-size="13px" font-style="normal" font-weight="bold" text-decoration="none" x="659.957763671875" y="171.5">Collection</text></g></g><g transform="translate(-230,-142) scale(1,1)"><g><path fill="none" stroke="none"/><text fill="#000000" stroke="none" font-family="Arial" font-size="13px" font-style="normal" font-weight="normal" text-decoration="none" x="621" y="194.5">+idcollection: Integer</text></g></g><g transform="translate(-230,-142) scale(1,1)"><g><path fill="none" stroke="none"/><text fill="#000000" stroke="none" font-family="Arial" font-size="13px" font-style="normal" font-weight="normal" text-decoration="none" x="621" y="209.5">+name: String</text></g></g><g transform="translate(-230,-142) scale(1,1)"><g><path fill="none" stroke="none"/><text fill="#000000" stroke="none" font-family="Arial" font-size="13px" font-style="normal" font-weight="normal" text-decoration="none" x="621" y="224.5">+description: Text[0..1]</text></g></g><g transform="translate(-230,-142) scale(1,1)"><rect fill="#C0C0C0" stroke="none" x="655" y="511" width="113.40625" height="57" opacity="0.2"/></g><g transform="translate(-230,-142) scale(1,1)"><rect fill="#ffffff" stroke="none" x="648" y="504" width="113.40625" height="57"/></g><g transform="translate(-230,-142) scale(1,1)"><path fill="none" stroke="#000000" d="M 648 504 L 761.40625 504 L 761.40625 561 L 648 561 L 648 504 Z Z" stroke-miterlimit="10"/></g><g transform="translate(-230,-142) scale(1,1)"><path fill="none" stroke="#000000" d="M 648 529 L 761.40625 529" stroke-miterlimit="10"/></g><g transform="translate(-230,-142) scale(1,1)"><path fill="none" stroke="#000000" d="M 648 552 L 761.40625 552" stroke-miterlimit="10"/></g><g transform="translate(-230,-142) scale(1,1)"><g><path fill="none" stroke="none"/><text fill="#000000" stroke="none" font-family="Arial" font-size="13px" font-style="normal" font-weight="bold" text-decoration="none" x="675.443603515625" y="523.5">Bookmark</text></g></g><g transform="translate(-230,-142) scale(1,1)"><g><path fill="none" stroke="none"/><text fill="#000000" stroke="none" font-family="Arial" font-size="13px" font-style="normal" font-weight="normal" text-decoration="none" x="653" y="546.5">+date: Timestamp</text></g></g><g transform="translate(-230,-142) scale(1,1)"><rect fill="#C0C0C0" stroke="none" x="439" y="199" width="113.40625" height="57" opacity="0.2"/></g><g transform="translate(-230,-142) scale(1,1)"><rect fill="#ffffff" stroke="none" x="432" y="192" width="113.40625" height="57"/></g><g transform="translate(-230,-142) scale(1,1)"><path fill="none" stroke="#000000" d="M 432 192 L 545.40625 192 L 545.40625 249 L 432 249 L 432 192 Z Z" stroke-miterlimit="10"/></g><g transform="translate(-230,-142) scale(1,1)"><path fill="none" stroke="#000000" d="M 432 217 L 545.40625 217" stroke-miterlimit="10"/></g><g transform="translate(-230,-142) scale(1,1)"><path fill="none" stroke="#000000" d="M 432 240 L 545.40625 240" stroke-miterlimit="10"/></g><g transform="translate(-230,-142) scale(1,1)"><g><path fill="none" stroke="none"/><text fill="#000000" stroke="none" font-family="Arial" font-size="13px" font-style="normal" font-weight="bold" text-decoration="none" x="443.53955078125" y="211.5">Collection_Post</text></g></g><g transform="translate(-230,-142) scale(1,1)"><g><path fill="none" stroke="none"/><text fill="#000000" stroke="none" font-family="Arial" font-size="13px" font-style="normal" font-weight="normal" text-decoration="none" x="437" y="234.5">+date: Timestamp</text></g></g><g transform="translate(-230,-142) scale(1,1)"><rect fill="#C0C0C0" stroke="none" x="631" y="647" width="144.484375" height="102" opacity="0.2"/></g><g transform="translate(-230,-142) scale(1,1)"><rect fill="#ffffff" stroke="none" x="624" y="640" width="144.484375" height="102"/></g><g transform="translate(-230,-142) scale(1,1)"><path fill="none" stroke="#000000" d="M 624 640 L 768.484375 640 L 768.484375 742 L 624 742 L 624 640 Z Z" stroke-miterlimit="10"/></g><g transform="translate(-230,-142) scale(1,1)"><path fill="none" stroke="#000000" d="M 624 665 L 768.484375 665" stroke-miterlimit="10"/></g><g transform="translate(-230,-142) scale(1,1)"><path fill="none" stroke="#000000" d="M 624 733 L 768.484375 733" stroke-miterlimit="10"/></g><g transform="translate(-230,-142) scale(1,1)"><g><path fill="none" stroke="none"/><text fill="#000000" stroke="none" font-family="Arial" font-size="13px" font-style="normal" font-weight="bold" text-decoration="none" x="676.3740234375" y="659.5">Device</text></g></g><g transform="translate(-230,-142) scale(1,1)"><g><path fill="none" stroke="none"/><text fill="#000000" stroke="none" font-family="Arial" font-size="13px" font-style="normal" font-weight="normal" text-decoration="none" x="629" y="682.5">+iddevice: Integer</text></g></g><g transform="translate(-230,-142) scale(1,1)"><g><path fill="none" stroke="none"/><text fill="#000000" stroke="none" font-family="Arial" font-size="13px" font-style="normal" font-weight="normal" text-decoration="none" x="629" y="697.5">+brand: String</text></g></g><g transform="translate(-230,-142) scale(1,1)"><g><path fill="none" stroke="none"/><text fill="#000000" stroke="none" font-family="Arial" font-size="13px" font-style="normal" font-weight="normal" text-decoration="none" x="629" y="712.5">+model: String</text></g></g><g transform="translate(-230,-142) scale(1,1)"><g><path fill="none" stroke="none"/><text fill="#000000" stroke="none" font-family="Arial" font-size="13px" font-style="normal" font-weight="normal" text-decoration="none" x="629" y="727.5">+deviceType: String</text></g></g><g transform="translate(-230,-142) scale(1,1)"><rect fill="#C0C0C0" stroke="none" x="855" y="215" width="146.642578125" height="57" opacity="0.2"/></g><g transform="translate(-230,-142) scale(1,1)"><rect fill="#ffffff" stroke="none" x="848" y="208" width="146.642578125" height="57"/></g><g transform="translate(-230,-142) scale(1,1)"><path fill="none" stroke="#000000" d="M 848 208 L 994.642578125 208 L 994.642578125 265 L 848 265 L 848 208 Z Z" stroke-miterlimit="10"/></g><g transform="translate(-230,-142) scale(1,1)"><path fill="none" stroke="#000000" d="M 848 233 L 994.642578125 233" stroke-miterlimit="10"/></g><g transform="translate(-230,-142) scale(1,1)"><path fill="none" stroke="#000000" d="M 848 256 L 994.642578125 256" stroke-miterlimit="10"/></g><g transform="translate(-230,-142) scale(1,1)"><g><path fill="none" stroke="none"/><text fill="#000000" stroke="none" font-family="Arial" font-size="13px" font-style="normal" font-weight="bold" text-decoration="none" x="893.864501953125" y="227.5">Following</text></g></g><g transform="translate(-230,-142) scale(1,1)"><g><path fill="none" stroke="none"/><text fill="#000000" stroke="none" font-family="Arial" font-size="13px" font-style="normal" font-weight="normal" text-decoration="none" x="853" y="250.5">+followdate: Timestamp</text></g></g><g transform="translate(-230,-142) scale(1,1)"><rect fill="#C0C0C0" stroke="none" x="311" y="647" width="166.16796875" height="177" opacity="0.2"/></g><g transform="translate(-230,-142) scale(1,1)"><rect fill="#ffffff" stroke="none" x="304" y="640" width="166.16796875" height="177"/></g><g transform="translate(-230,-142) scale(1,1)"><path fill="none" stroke="#000000" d="M 304 640 L 470.16796875 640 L 470.16796875 817 L 304 817 L 304 640 Z Z" stroke-miterlimit="10"/></g><g transform="translate(-230,-142) scale(1,1)"><path fill="none" stroke="#000000" d="M 304 665 L 470.16796875 665" stroke-miterlimit="10"/></g><g transform="translate(-230,-142) scale(1,1)"><path fill="none" stroke="#000000" d="M 304 808 L 470.16796875 808" stroke-miterlimit="10"/></g><g transform="translate(-230,-142) scale(1,1)"><g><path fill="none" stroke="none"/><text fill="#000000" stroke="none" font-family="Arial" font-size="13px" font-style="normal" font-weight="bold" text-decoration="none" x="362.509033203125" y="659.5">Location</text></g></g><g transform="translate(-230,-142) scale(1,1)"><g><path fill="none" stroke="none"/><text fill="#000000" stroke="none" font-family="Arial" font-size="13px" font-style="normal" font-weight="normal" text-decoration="none" x="309" y="682.5">+idlocation: Integer</text></g></g><g transform="translate(-230,-142) scale(1,1)"><g><path fill="none" stroke="none"/><text fill="#000000" stroke="none" font-family="Arial" font-size="13px" font-style="normal" font-weight="normal" text-decoration="none" x="309" y="697.5">+country: String[0..1]</text></g></g><g transform="translate(-230,-142) scale(1,1)"><g><path fill="none" stroke="none"/><text fill="#000000" stroke="none" font-family="Arial" font-size="13px" font-style="normal" font-weight="normal" text-decoration="none" x="309" y="712.5">+state: String[0..1]</text></g></g><g transform="translate(-230,-142) scale(1,1)"><g><path fill="none" stroke="none"/><text fill="#000000" stroke="none" font-family="Arial" font-size="13px" font-style="normal" font-weight="normal" text-decoration="none" x="309" y="727.5">+city: String[0..1]</text></g></g><g transform="translate(-230,-142) scale(1,1)"><g><path fill="none" stroke="none"/><text fill="#000000" stroke="none" font-family="Arial" font-size="13px" font-style="normal" font-weight="normal" text-decoration="none" x="309" y="742.5">+postcode: String[0..1]</text></g></g><g transform="translate(-230,-142) scale(1,1)"><g><path fill="none" stroke="none"/><text fill="#000000" stroke="none" font-family="Arial" font-size="13px" font-style="normal" font-weight="normal" text-decoration="none" x="309" y="757.5">+latitude: Decimal</text></g></g><g transform="translate(-230,-142) scale(1,1)"><g><path fill="none" stroke="none"/><text fill="#000000" stroke="none" font-family="Arial" font-size="13px" font-style="normal" font-weight="normal" text-decoration="none" x="309" y="772.5">+longitude: Decimal</text></g></g><g transform="translate(-230,-142) scale(1,1)"><g><path fill="none" stroke="none"/><text fill="#000000" stroke="none" font-family="Arial" font-size="13px" font-style="normal" font-weight="normal" text-decoration="none" x="309" y="787.5">+road: String[0..1]</text></g></g><g transform="translate(-230,-142) scale(1,1)"><g><path fill="none" stroke="none"/><text fill="#000000" stroke="none" font-family="Arial" font-size="13px" font-style="normal" font-weight="normal" text-decoration="none" x="309" y="802.5">+formatted_address: String</text></g></g><g transform="translate(-230,-142) scale(1,1)"><rect fill="#C0C0C0" stroke="none" x="439" y="351" width="162.55615234375" height="177" opacity="0.2"/></g><g transform="translate(-230,-142) scale(1,1)"><rect fill="#ffffff" stroke="none" x="432" y="344" width="162.55615234375" height="177"/></g><g transform="translate(-230,-142) scale(1,1)"><path fill="none" stroke="#000000" d="M 432 344 L 594.55615234375 344 L 594.55615234375 521 L 432 521 L 432 344 Z Z" stroke-miterlimit="10"/></g><g transform="translate(-230,-142) scale(1,1)"><path fill="none" stroke="#000000" d="M 432 369 L 594.55615234375 369" stroke-miterlimit="10"/></g><g transform="translate(-230,-142) scale(1,1)"><path fill="none" stroke="#000000" d="M 432 512 L 594.55615234375 512" stroke-miterlimit="10"/></g><g transform="translate(-230,-142) scale(1,1)"><g><path fill="none" stroke="none"/><text fill="#000000" stroke="none" font-family="Arial" font-size="13px" font-style="normal" font-weight="bold" text-decoration="none" x="500.271728515625" y="363.5">Post</text></g></g><g transform="translate(-230,-142) scale(1,1)"><g><path fill="none" stroke="none"/><text fill="#000000" stroke="none" font-family="Arial" font-size="13px" font-style="normal" font-weight="normal" text-decoration="none" x="437" y="386.5">+idimage: Integer</text></g></g><g transform="translate(-230,-142) scale(1,1)"><g><path fill="none" stroke="none"/><text fill="#000000" stroke="none" font-family="Arial" font-size="13px" font-style="normal" font-weight="normal" text-decoration="none" x="437" y="401.5">+photo: String</text></g></g><g transform="translate(-230,-142) scale(1,1)"><g><path fill="none" stroke="none"/><text fill="#000000" stroke="none" font-family="Arial" font-size="13px" font-style="normal" font-weight="normal" text-decoration="none" x="437" y="416.5">+resolution: String</text></g></g><g transform="translate(-230,-142) scale(1,1)"><g><path fill="none" stroke="none"/><text fill="#000000" stroke="none" font-family="Arial" font-size="13px" font-style="normal" font-weight="normal" text-decoration="none" x="437" y="431.5">+description: Text[0..1]</text></g></g><g transform="translate(-230,-142) scale(1,1)"><g><path fill="none" stroke="none"/><text fill="#000000" stroke="none" font-family="Arial" font-size="13px" font-style="normal" font-weight="normal" text-decoration="none" x="437" y="446.5">+size: Integer</text></g></g><g transform="translate(-230,-142) scale(1,1)"><g><path fill="none" stroke="none"/><text fill="#000000" stroke="none" font-family="Arial" font-size="13px" font-style="normal" font-weight="normal" text-decoration="none" x="437" y="461.5">+extension: String</text></g></g><g transform="translate(-230,-142) scale(1,1)"><g><path fill="none" stroke="none"/><text fill="#000000" stroke="none" font-family="Arial" font-size="13px" font-style="normal" font-weight="normal" text-decoration="none" x="437" y="476.5">+posting_date: Timestamp</text></g></g><g transform="translate(-230,-142) scale(1,1)"><g><path fill="none" stroke="none"/><text fill="#000000" stroke="none" font-family="Arial" font-size="13px" font-style="normal" font-weight="normal" text-decoration="none" x="437" y="491.5">+status: status_T</text></g></g><g transform="translate(-230,-142) scale(1,1)"><g><path fill="none" stroke="none"/><text fill="#000000" stroke="none" font-family="Arial" font-size="13px" font-style="normal" font-weight="normal" text-decoration="none" x="437" y="506.5">+preview: String</text></g></g><g transform="translate(-230,-142) scale(1,1)"><rect fill="#C0C0C0" stroke="none" x="247" y="255" width="160" height="87" opacity="0.2"/></g><g transform="translate(-230,-142) scale(1,1)"><rect fill="#ffffff" stroke="none" x="240" y="248" width="160" height="87"/></g><g transform="translate(-230,-142) scale(1,1)"><path fill="none" stroke="#000000" d="M 240 248 L 400 248 L 400 335 L 240 335 L 240 248 Z Z" stroke-miterlimit="10"/></g><g transform="translate(-230,-142) scale(1,1)"><path fill="none" stroke="#000000" d="M 240 273 L 400 273" stroke-miterlimit="10"/></g><g transform="translate(-230,-142) scale(1,1)"><path fill="none" stroke="#000000" d="M 240 326 L 400 326" stroke-miterlimit="10"/></g><g transform="translate(-230,-142) scale(1,1)"><g><path fill="none" stroke="none"/><text fill="#000000" stroke="none" font-family="Arial" font-size="13px" font-style="normal" font-weight="bold" text-decoration="none" x="298.319580078125" y="267.5">Subject</text></g></g><g transform="translate(-230,-142) scale(1,1)"><g><path fill="none" stroke="none"/><text fill="#000000" stroke="none" font-family="Arial" font-size="13px" font-style="normal" font-weight="normal" text-decoration="none" x="245" y="290.5">+subject_id: Integer</text></g></g><g transform="translate(-230,-142) scale(1,1)"><g><path fill="none" stroke="none"/><text fill="#000000" stroke="none" font-family="Arial" font-size="13px" font-style="normal" font-weight="normal" text-decoration="none" x="245" y="305.5">+name: String</text></g></g><g transform="translate(-230,-142) scale(1,1)"><g><path fill="none" stroke="none"/><text fill="#000000" stroke="none" font-family="Arial" font-size="13px" font-style="normal" font-weight="normal" text-decoration="none" x="245" y="320.5">+category: String</text></g></g><g transform="translate(-230,-142) scale(1,1)"><rect fill="#C0C0C0" stroke="none" x="663" y="287" width="91.36083984375" height="44" opacity="0.2"/></g><g transform="translate(-230,-142) scale(1,1)"><rect fill="#ffffff" stroke="none" x="656" y="280" width="91.36083984375" height="44"/></g><g transform="translate(-230,-142) scale(1,1)"><path fill="none" stroke="#000000" d="M 656 280 L 747.36083984375 280 L 747.36083984375 324 L 656 324 L 656 280 Z Z" stroke-miterlimit="10"/></g><g transform="translate(-230,-142) scale(1,1)"><path fill="none" stroke="#000000" d="M 656 305 L 747.36083984375 305" stroke-miterlimit="10"/></g><g transform="translate(-230,-142) scale(1,1)"><path fill="none" stroke="#000000" d="M 656 315 L 747.36083984375 315" stroke-miterlimit="10"/></g><g transform="translate(-230,-142) scale(1,1)"><g><path fill="none" stroke="none"/><text fill="#000000" stroke="none" font-family="Arial" font-size="13px" font-style="normal" font-weight="bold" text-decoration="none" x="662.29638671875" y="299.5">Tagged_User</text></g></g><g transform="translate(-230,-142) scale(1,1)"><rect fill="#C0C0C0" stroke="none" x="919" y="575" width="87.05712890625" height="44" opacity="0.2"/></g><g transform="translate(-230,-142) scale(1,1)"><rect fill="#ffffff" stroke="none" x="912" y="568" width="87.05712890625" height="44"/></g><g transform="translate(-230,-142) scale(1,1)"><path fill="none" stroke="#000000" d="M 912 568 L 999.05712890625 568 L 999.05712890625 612 L 912 612 L 912 568 Z Z" stroke-miterlimit="10"/></g><g transform="translate(-230,-142) scale(1,1)"><path fill="none" stroke="#000000" d="M 912 593 L 999.05712890625 593" stroke-miterlimit="10"/></g><g transform="translate(-230,-142) scale(1,1)"><path fill="none" stroke="#000000" d="M 912 603 L 999.05712890625 603" stroke-miterlimit="10"/></g><g transform="translate(-230,-142) scale(1,1)"><g><path fill="none" stroke="none"/><text fill="#000000" stroke="none" font-family="Arial" font-size="13px" font-style="normal" font-weight="bold" text-decoration="none" x="918.32177734375" y="587.5">User_Device</text></g></g><g transform="translate(-230,-142) scale(1,1)"><path fill="none" stroke="#000000" d="M 496 521 L 496 675 M 496 675 A 8 8 0 0 0 504 683 L 624 683" stroke-miterlimit="10"/></g><g transform="translate(-230,-142) scale(1,1)"><g><path fill="none" stroke="none"/><text fill="#000000" stroke="none" font-family="Arial" font-size="13px" font-style="normal" font-weight="normal" text-decoration="none" x="502.5" y="604.5">+snapped with</text></g></g><g transform="translate(-230,-142) scale(1,1)"><g><path fill="none" stroke="none"/><text fill="#000000" stroke="none" font-family="Arial" font-size="13px" font-style="normal" font-weight="normal" text-decoration="none" x="590.658203125" y="700.5">1..1</text></g></g><g transform="translate(-230,-142) scale(1,1)"><g><path fill="none" stroke="none"/><text fill="#000000" stroke="none" font-family="Arial" font-size="13px" font-style="normal" font-weight="normal" text-decoration="none" x="469.74365234375" y="539.5">0..*</text></g></g><g transform="translate(-230,-142) scale(1,1)"><path fill="none" stroke="#000000" d="M 595 416 L 808 416" stroke-miterlimit="10"/></g><g transform="translate(-230,-142) scale(1,1)"><g><path fill="none" stroke="none"/><text fill="#000000" stroke="none" font-family="Arial" font-size="13px" font-style="normal" font-weight="normal" text-decoration="none" x="671.30908203125" y="412.5">+publishes</text></g></g><g transform="translate(-230,-142) scale(1,1)"><g><path fill="none" stroke="none"/><text fill="#000000" stroke="none" font-family="Arial" font-size="13px" font-style="normal" font-weight="normal" text-decoration="none" x="605.74365234375" y="434.5">0..*</text></g></g><g transform="translate(-230,-142) scale(1,1)"><g><path fill="none" stroke="none"/><text fill="#000000" stroke="none" font-family="Arial" font-size="13px" font-style="normal" font-weight="normal" text-decoration="none" x="774.658203125" y="434.5">0..1</text></g></g><g transform="translate(-230,-142) scale(1,1)"><path fill="none" stroke="#000000" d="M 400 640 L 400 496 M 400 496 A 8 8 0 0 1 408 488 L 432 488" stroke-miterlimit="10"/></g><g transform="translate(-230,-142) scale(1,1)"><g><path fill="none" stroke="none"/><text fill="#000000" stroke="none" font-family="Arial" font-size="13px" font-style="normal" font-weight="normal" text-decoration="none" x="324.5" y="567.5">+snapped in</text></g></g><g transform="translate(-230,-142) scale(1,1)"><g><path fill="none" stroke="none"/><text fill="#000000" stroke="none" font-family="Arial" font-size="13px" font-style="normal" font-weight="normal" text-decoration="none" x="403.658203125" y="508.5">1..1</text></g></g><g transform="translate(-230,-142) scale(1,1)"><g><path fill="none" stroke="none"/><text fill="#000000" stroke="none" font-family="Arial" font-size="13px" font-style="normal" font-weight="normal" text-decoration="none" x="407.658203125" y="628.5">0..1</text></g></g><g transform="translate(-230,-142) scale(1,1)"><path fill="none" stroke="#000000" d="M 595 472 L 808 472" stroke-miterlimit="10"/></g><g transform="translate(-230,-142) scale(1,1)"><g><path fill="none" stroke="none"/><text fill="#000000" stroke="none" font-family="Arial" font-size="13px" font-style="normal" font-weight="normal" text-decoration="none" x="679.700927734375" y="467.5">+likes</text></g></g><g transform="translate(-230,-142) scale(1,1)"><g><path fill="none" stroke="none"/><text fill="#000000" stroke="none" font-family="Arial" font-size="13px" font-style="normal" font-weight="normal" text-decoration="none" x="605.74365234375" y="490.5">0..*</text></g></g><g transform="translate(-230,-142) scale(1,1)"><g><path fill="none" stroke="none"/><text fill="#000000" stroke="none" font-family="Arial" font-size="13px" font-style="normal" font-weight="normal" text-decoration="none" x="775.74365234375" y="490.5">0..*</text></g></g><g transform="translate(-230,-142) scale(1,1)"><path fill="none" stroke="#000000" d="M 935 384 L 968 384 L 968 312 L 896 312 L 896 344" stroke-miterlimit="10"/></g><g transform="translate(-230,-142) scale(1,1)"><g><path fill="none" stroke="none"/><text fill="#000000" stroke="none" font-family="Arial" font-size="13px" font-style="normal" font-weight="normal" text-decoration="none" x="975.5" y="355.5">+subscribing</text></g></g><g transform="translate(-230,-142) scale(1,1)"><g><path fill="none" stroke="none"/><text fill="#000000" stroke="none" font-family="Arial" font-size="13px" font-style="normal" font-weight="normal" text-decoration="none" x="943.74365234375" y="380.5">0..*</text></g></g><g transform="translate(-230,-142) scale(1,1)"><g><path fill="none" stroke="none"/><text fill="#000000" stroke="none" font-family="Arial" font-size="13px" font-style="normal" font-weight="normal" text-decoration="none" x="902.74365234375" y="332.5">0..*</text></g></g><g transform="translate(-230,-142) scale(1,1)"><path fill="none" stroke="#000000" d="M 921 266 L 922 312 L 932 312" stroke-miterlimit="10" stroke-dasharray="3"/></g><g transform="translate(-230,-142) scale(1,1)"><path fill="none" stroke="#000000" d="M 768 683 L 872 683 M 872 683 A 8 8 0 0 0 880 675 L 880 506" stroke-miterlimit="10"/></g><g transform="translate(-230,-142) scale(1,1)"><g><path fill="none" stroke="none"/><text fill="#000000" stroke="none" font-family="Arial" font-size="13px" font-style="normal" font-weight="normal" text-decoration="none" x="831.1650390625" y="603.5">+holds</text></g></g><g transform="translate(-230,-142) scale(1,1)"><g><path fill="none" stroke="none"/><text fill="#000000" stroke="none" font-family="Arial" font-size="13px" font-style="normal" font-weight="normal" text-decoration="none" x="775.74365234375" y="699.5">0..*</text></g></g><g transform="translate(-230,-142) scale(1,1)"><g><path fill="none" stroke="none"/><text fill="#000000" stroke="none" font-family="Arial" font-size="13px" font-style="normal" font-weight="normal" text-decoration="none" x="887.74365234375" y="522.5">0..*</text></g></g><g transform="translate(-230,-142) scale(1,1)"><path fill="none" stroke="#000000" d="M 911 592 L 880 594" stroke-miterlimit="10" stroke-dasharray="3"/></g><g transform="translate(-230,-142) scale(1,1)"><path fill="none" stroke="#000000" d="M 595 360 L 808 360" stroke-miterlimit="10"/></g><g transform="translate(-230,-142) scale(1,1)"><g><path fill="none" stroke="none"/><text fill="#000000" stroke="none" font-family="Arial" font-size="13px" font-style="normal" font-weight="normal" text-decoration="none" x="683.456787109375" y="380.5">+tags</text></g></g><g transform="translate(-230,-142) scale(1,1)"><g><path fill="none" stroke="none"/><text fill="#000000" stroke="none" font-family="Arial" font-size="13px" font-style="normal" font-weight="normal" text-decoration="none" x="607.74365234375" y="379.5">0..*</text></g></g><g transform="translate(-230,-142) scale(1,1)"><g><path fill="none" stroke="none"/><text fill="#000000" stroke="none" font-family="Arial" font-size="13px" font-style="normal" font-weight="normal" text-decoration="none" x="775.74365234375" y="380.5">0..*</text></g></g><g transform="translate(-230,-142) scale(1,1)"><path fill="none" stroke="#000000" d="M 701 325 L 701 360" stroke-miterlimit="10" stroke-dasharray="3"/></g><g transform="translate(-230,-142) scale(1,1)"><path fill="none" stroke="#000000" d="M 616 208 L 568 208 M 568 208 A 8 8 0 0 0 560 216 L 560 344" stroke-miterlimit="10"/></g><g transform="translate(-230,-142) scale(1,1)"><g><path fill="none" stroke="none"/><text fill="#000000" stroke="none" font-family="Arial" font-size="13px" font-style="normal" font-weight="normal" text-decoration="none" x="566.490966796875" y="275.5">+included</text></g></g><g transform="translate(-230,-142) scale(1,1)"><g><path fill="none" stroke="none"/><text fill="#000000" stroke="none" font-family="Arial" font-size="13px" font-style="normal" font-weight="normal" text-decoration="none" x="590.74365234375" y="203.5">0..*</text></g></g><g transform="translate(-230,-142) scale(1,1)"><g><path fill="none" stroke="none"/><text fill="#000000" stroke="none" font-family="Arial" font-size="13px" font-style="normal" font-weight="normal" text-decoration="none" x="534.74365234375" y="339.5">0..*</text></g></g><g transform="translate(-230,-142) scale(1,1)"><path fill="none" stroke="#000000" d="M 560 276 L 527 250" stroke-miterlimit="10" stroke-dasharray="3"/></g><g transform="translate(-230,-142) scale(1,1)"><path fill="none" stroke="#000000" d="M 701 503 L 701 473" stroke-miterlimit="10" stroke-dasharray="3"/></g><g transform="translate(-230,-142) scale(1,1)"><rect fill="#C0C0C0" stroke="none" x="919" y="631" width="95.72802734375" height="75" opacity="0.2"/></g><g transform="translate(-230,-142) scale(1,1)"><rect fill="#ffffff" stroke="none" x="912" y="624" width="95.72802734375" height="75"/></g><g transform="translate(-230,-142) scale(1,1)"><path fill="none" stroke="#000000" d="M 912 624 L 1007.72802734375 624 L 1007.72802734375 699 L 912 699 L 912 624 Z Z" stroke-miterlimit="10"/></g><g transform="translate(-230,-142) scale(1,1)"><path fill="none" stroke="#000000" d="M 912 662 L 1007.72802734375 662" stroke-miterlimit="10"/></g><g transform="translate(-230,-142) scale(1,1)"><g><path fill="none" stroke="none"/><text fill="#000000" stroke="none" font-family="Arial" font-size="13px" font-style="normal" font-weight="normal" text-decoration="none" x="916.5" y="641.5">«enumeration»</text></g></g><g transform="translate(-230,-142) scale(1,1)"><g><path fill="none" stroke="none"/><text fill="#000000" stroke="none" font-family="Arial" font-size="13px" font-style="normal" font-weight="bold" text-decoration="none" x="934.936767578125" y="656.5">status_T</text></g></g><g transform="translate(-230,-142) scale(1,1)"><g><path fill="none" stroke="none"/><text fill="#000000" stroke="none" font-family="Arial" font-size="13px" font-style="normal" font-weight="normal" text-decoration="none" x="917" y="679.5">Public</text></g></g><g transform="translate(-230,-142) scale(1,1)"><g><path fill="none" stroke="none"/><text fill="#000000" stroke="none" font-family="Arial" font-size="13px" font-style="normal" font-weight="normal" text-decoration="none" x="917" y="694.5">Private</text></g></g><g transform="translate(-230,-142) scale(1,1)"><path fill="none" stroke="#000000" d="M 761 208 L 808 208 M 808 208 A 8 8 0 0 1 816 216 L 816 344" stroke-miterlimit="10"/></g><g transform="translate(-230,-142) scale(1,1)"><g><path fill="none" stroke="none"/><text fill="#000000" stroke="none" font-family="Arial" font-size="13px" font-style="normal" font-weight="normal" text-decoration="none" x="758.5" y="276.5">+creates</text></g></g><g transform="translate(-230,-142) scale(1,1)"><g><path fill="none" stroke="none"/><text fill="#000000" stroke="none" font-family="Arial" font-size="13px" font-style="normal" font-weight="normal" text-decoration="none" x="771.74365234375" y="204.5">0..*</text></g></g><g transform="translate(-230,-142) scale(1,1)"><g><path fill="none" stroke="none"/><text fill="#000000" stroke="none" font-family="Arial" font-size="13px" font-style="normal" font-weight="normal" text-decoration="none" x="821.658203125" y="340.5">1..1</text></g></g><g transform="translate(-230,-142) scale(1,1)"><path fill="none" stroke="#000000" d="M 320 335 L 320 410 M 320 410 A 8 8 0 0 0 328 418 L 432 418" stroke-miterlimit="10"/></g><g transform="translate(-230,-142) scale(1,1)"><g><path fill="none" stroke="none"/><text fill="#000000" stroke="none" font-family="Arial" font-size="13px" font-style="normal" font-weight="normal" text-decoration="none" x="342.5" y="406.5">+contains</text></g></g><g transform="translate(-230,-142) scale(1,1)"><g><path fill="none" stroke="none"/><text fill="#000000" stroke="none" font-family="Arial" font-size="13px" font-style="normal" font-weight="normal" text-decoration="none" x="286.658203125" y="356.5">0..5</text></g></g><g transform="translate(-230,-142) scale(1,1)"><g><path fill="none" stroke="none"/><text fill="#000000" stroke="none" font-family="Arial" font-size="13px" font-style="normal" font-weight="normal" text-decoration="none" x="406.74365234375" y="436.5">1..*</text></g></g><g transform="translate(-230,-142) scale(1,1)"><rect fill="#C0C0C0" stroke="none" x="247" y="447" width="91.3544921875" height="44" opacity="0.2"/></g><g transform="translate(-230,-142) scale(1,1)"><rect fill="#ffffff" stroke="none" x="240" y="440" width="91.3544921875" height="44"/></g><g transform="translate(-230,-142) scale(1,1)"><path fill="none" stroke="#000000" d="M 240 440 L 331.3544921875 440 L 331.3544921875 484 L 240 484 L 240 440 Z Z" stroke-miterlimit="10"/></g><g transform="translate(-230,-142) scale(1,1)"><path fill="none" stroke="#000000" d="M 240 465 L 331.3544921875 465" stroke-miterlimit="10"/></g><g transform="translate(-230,-142) scale(1,1)"><path fill="none" stroke="#000000" d="M 240 475 L 331.3544921875 475" stroke-miterlimit="10"/></g><g transform="translate(-230,-142) scale(1,1)"><g><path fill="none" stroke="none"/><text fill="#000000" stroke="none" font-family="Arial" font-size="13px" font-style="normal" font-weight="bold" text-decoration="none" x="247.37548828125" y="459.5">Subject_Post</text></g></g><g transform="translate(-230,-142) scale(1,1)"><path fill="none" stroke="#000000" d="M 332 439 L 376 418" stroke-miterlimit="10" stroke-dasharray="3"/></g></g></svg>