<svg version="1.1" xmlns="http://www.w3.org/2000/svg" xmlns:xlink="http://www.w3.org/1999/xlink" width="804.34716796875" height="705"><defs/><g><g transform="translate(-246,-142) scale(1,1)"><rect fill="#C0C0C0" stroke="none" x="815" y="351" width="119" height="147" opacity="0.2"/></g><g transform="translate(-246,-142) scale(1,1)"><rect fill="#ffffff" stroke="none" x="808" y="344" width="119" height="147"/></g><g transform="translate(-246,-142) scale(1,1)"><path fill="none" stroke="#000000" d="M 808 344 L 927 344 L 927 491 L 808 491 L 808 344 Z Z" stroke-miterlimit="10"/></g><g transform="translate(-246,-142) scale(1,1)"><path fill="none" stroke="#000000" d="M 808 369 L 927 369" stroke-miterlimit="10"/></g><g transform="translate(-246,-142) scale(1,1)"><path fill="none" stroke="#000000" d="M 808 482 L 927 482" stroke-miterlimit="10"/></g><g transform="translate(-246,-142) scale(1,1)"><g><path fill="none" stroke="none"/><text fill="#000000" stroke="none" font-family="Arial" font-size="13px" font-style="normal" font-weight="bold" text-decoration="none" x="844.013671875" y="363.5">Account</text></g></g><g transform="translate(-246,-142) scale(1,1)"><g><path fill="none" stroke="none"/><text fill="#000000" stroke="none" font-family="Arial" font-size="13px" font-style="normal" font-weight="normal" text-decoration="none" x="813" y="386.5">+username: String</text></g></g><g transform="translate(-246,-142) scale(1,1)"><g><path fill="none" stroke="none"/><text fill="#000000" stroke="none" font-family="Arial" font-size="13px" font-style="normal" font-weight="normal" text-decoration="none" x="813" y="401.5">+email: String</text></g></g><g transform="translate(-246,-142) scale(1,1)"><g><path fill="none" stroke="none"/><text fill="#000000" stroke="none" font-family="Arial" font-size="13px" font-style="normal" font-weight="normal" text-decoration="none" x="813" y="416.5">+name: String</text></g></g><g transform="translate(-246,-142) scale(1,1)"><g><path fill="none" stroke="none"/><text fill="#000000" stroke="none" font-family="Arial" font-size="13px" font-style="normal" font-weight="normal" text-decoration="none" x="813" y="431.5">+password: String</text></g></g><g transform="translate(-246,-142) scale(1,1)"><g><path fill="none" stroke="none"/><text fill="#000000" stroke="none" font-family="Arial" font-size="13px" font-style="normal" font-weight="normal" text-decoration="none" x="813" y="446.5">+gender: String</text></g></g><g transform="translate(-246,-142) scale(1,1)"><g><path fill="none" stroke="none"/><text fill="#000000" stroke="none" font-family="Arial" font-size="13px" font-style="normal" font-weight="normal" text-decoration="none" x="813" y="461.5">+bio: Text[0..1]</text></g></g><g transform="translate(-246,-142) scale(1,1)"><g><path fill="none" stroke="none"/><text fill="#000000" stroke="none" font-family="Arial" font-size="13px" font-style="normal" font-weight="normal" text-decoration="none" x="813" y="476.5">+avatar: Blob[0..1]</text></g></g><g transform="translate(-246,-142) scale(1,1)"><rect fill="#C0C0C0" stroke="none" x="623" y="159" width="145" height="72" opacity="0.2"/></g><g transform="translate(-246,-142) scale(1,1)"><rect fill="#ffffff" stroke="none" x="616" y="152" width="145" height="72"/></g><g transform="translate(-246,-142) scale(1,1)"><path fill="none" stroke="#000000" d="M 616 152 L 761 152 L 761 224 L 616 224 L 616 152 Z Z" stroke-miterlimit="10"/></g><g transform="translate(-246,-142) scale(1,1)"><path fill="none" stroke="#000000" d="M 616 177 L 761 177" stroke-miterlimit="10"/></g><g transform="translate(-246,-142) scale(1,1)"><path fill="none" stroke="#000000" d="M 616 215 L 761 215" stroke-miterlimit="10"/></g><g transform="translate(-246,-142) scale(1,1)"><g><path fill="none" stroke="none"/><text fill="#000000" stroke="none" font-family="Arial" font-size="13px" font-style="normal" font-weight="bold" text-decoration="none" x="659.957763671875" y="171.5">Collection</text></g></g><g transform="translate(-246,-142) scale(1,1)"><g><path fill="none" stroke="none"/><text fill="#000000" stroke="none" font-family="Arial" font-size="13px" font-style="normal" font-weight="normal" text-decoration="none" x="621" y="194.5">+name: String</text></g></g><g transform="translate(-246,-142) scale(1,1)"><g><path fill="none" stroke="none"/><text fill="#000000" stroke="none" font-family="Arial" font-size="13px" font-style="normal" font-weight="normal" text-decoration="none" x="621" y="209.5">+description: Text[0..1]</text></g></g><g transform="translate(-246,-142) scale(1,1)"><rect fill="#C0C0C0" stroke="none" x="655" y="511" width="113.40625" height="57" opacity="0.2"/></g><g transform="translate(-246,-142) scale(1,1)"><rect fill="#ffffff" stroke="none" x="648" y="504" width="113.40625" height="57"/></g><g transform="translate(-246,-142) scale(1,1)"><path fill="none" stroke="#000000" d="M 648 504 L 761.40625 504 L 761.40625 561 L 648 561 L 648 504 Z Z" stroke-miterlimit="10"/></g><g transform="translate(-246,-142) scale(1,1)"><path fill="none" stroke="#000000" d="M 648 529 L 761.40625 529" stroke-miterlimit="10"/></g><g transform="translate(-246,-142) scale(1,1)"><path fill="none" stroke="#000000" d="M 648 552 L 761.40625 552" stroke-miterlimit="10"/></g><g transform="translate(-246,-142) scale(1,1)"><g><path fill="none" stroke="none"/><text fill="#000000" stroke="none" font-family="Arial" font-size="13px" font-style="normal" font-weight="bold" text-decoration="none" x="675.443603515625" y="523.5">Bookmark</text></g></g><g transform="translate(-246,-142) scale(1,1)"><g><path fill="none" stroke="none"/><text fill="#000000" stroke="none" font-family="Arial" font-size="13px" font-style="normal" font-weight="normal" text-decoration="none" x="653" y="546.5">+date: Timestamp</text></g></g><g transform="translate(-246,-142) scale(1,1)"><rect fill="#C0C0C0" stroke="none" x="415" y="255" width="113.40625" height="57" opacity="0.2"/></g><g transform="translate(-246,-142) scale(1,1)"><rect fill="#ffffff" stroke="none" x="408" y="248" width="113.40625" height="57"/></g><g transform="translate(-246,-142) scale(1,1)"><path fill="none" stroke="#000000" d="M 408 248 L 521.40625 248 L 521.40625 305 L 408 305 L 408 248 Z Z" stroke-miterlimit="10"/></g><g transform="translate(-246,-142) scale(1,1)"><path fill="none" stroke="#000000" d="M 408 273 L 521.40625 273" stroke-miterlimit="10"/></g><g transform="translate(-246,-142) scale(1,1)"><path fill="none" stroke="#000000" d="M 408 296 L 521.40625 296" stroke-miterlimit="10"/></g><g transform="translate(-246,-142) scale(1,1)"><g><path fill="none" stroke="none"/><text fill="#000000" stroke="none" font-family="Arial" font-size="13px" font-style="normal" font-weight="bold" text-decoration="none" x="419.53955078125" y="267.5">Collection_Post</text></g></g><g transform="translate(-246,-142) scale(1,1)"><g><path fill="none" stroke="none"/><text fill="#000000" stroke="none" font-family="Arial" font-size="13px" font-style="normal" font-weight="normal" text-decoration="none" x="413" y="290.5">+date: Timestamp</text></g></g><g transform="translate(-246,-142) scale(1,1)"><rect fill="#C0C0C0" stroke="none" x="631" y="647" width="144.484375" height="87" opacity="0.2"/></g><g transform="translate(-246,-142) scale(1,1)"><rect fill="#ffffff" stroke="none" x="624" y="640" width="144.484375" height="87"/></g><g transform="translate(-246,-142) scale(1,1)"><path fill="none" stroke="#000000" d="M 624 640 L 768.484375 640 L 768.484375 727 L 624 727 L 624 640 Z Z" stroke-miterlimit="10"/></g><g transform="translate(-246,-142) scale(1,1)"><path fill="none" stroke="#000000" d="M 624 665 L 768.484375 665" stroke-miterlimit="10"/></g><g transform="translate(-246,-142) scale(1,1)"><path fill="none" stroke="#000000" d="M 624 718 L 768.484375 718" stroke-miterlimit="10"/></g><g transform="translate(-246,-142) scale(1,1)"><g><path fill="none" stroke="none"/><text fill="#000000" stroke="none" font-family="Arial" font-size="13px" font-style="normal" font-weight="bold" text-decoration="none" x="676.3740234375" y="659.5">Device</text></g></g><g transform="translate(-246,-142) scale(1,1)"><g><path fill="none" stroke="none"/><text fill="#000000" stroke="none" font-family="Arial" font-size="13px" font-style="normal" font-weight="normal" text-decoration="none" x="629" y="682.5">+brand: String</text></g></g><g transform="translate(-246,-142) scale(1,1)"><g><path fill="none" stroke="none"/><text fill="#000000" stroke="none" font-family="Arial" font-size="13px" font-style="normal" font-weight="normal" text-decoration="none" x="629" y="697.5">+model: String</text></g></g><g transform="translate(-246,-142) scale(1,1)"><g><path fill="none" stroke="none"/><text fill="#000000" stroke="none" font-family="Arial" font-size="13px" font-style="normal" font-weight="normal" text-decoration="none" x="629" y="712.5">+deviceType: device_T</text></g></g><g transform="translate(-246,-142) scale(1,1)"><rect fill="#C0C0C0" stroke="none" x="855" y="215" width="146.642578125" height="57" opacity="0.2"/></g><g transform="translate(-246,-142) scale(1,1)"><rect fill="#ffffff" stroke="none" x="848" y="208" width="146.642578125" height="57"/></g><g transform="translate(-246,-142) scale(1,1)"><path fill="none" stroke="#000000" d="M 848 208 L 994.642578125 208 L 994.642578125 265 L 848 265 L 848 208 Z Z" stroke-miterlimit="10"/></g><g transform="translate(-246,-142) scale(1,1)"><path fill="none" stroke="#000000" d="M 848 233 L 994.642578125 233" stroke-miterlimit="10"/></g><g transform="translate(-246,-142) scale(1,1)"><path fill="none" stroke="#000000" d="M 848 256 L 994.642578125 256" stroke-miterlimit="10"/></g><g transform="translate(-246,-142) scale(1,1)"><g><path fill="none" stroke="none"/><text fill="#000000" stroke="none" font-family="Arial" font-size="13px" font-style="normal" font-weight="bold" text-decoration="none" x="893.864501953125" y="227.5">Following</text></g></g><g transform="translate(-246,-142) scale(1,1)"><g><path fill="none" stroke="none"/><text fill="#000000" stroke="none" font-family="Arial" font-size="13px" font-style="normal" font-weight="normal" text-decoration="none" x="853" y="250.5">+followdate: Timestamp</text></g></g><g transform="translate(-246,-142) scale(1,1)"><rect fill="#C0C0C0" stroke="none" x="311" y="631" width="166.16796875" height="87" opacity="0.2"/></g><g transform="translate(-246,-142) scale(1,1)"><rect fill="#ffffff" stroke="none" x="304" y="624" width="166.16796875" height="87"/></g><g transform="translate(-246,-142) scale(1,1)"><path fill="none" stroke="#000000" d="M 304 624 L 470.16796875 624 L 470.16796875 711 L 304 711 L 304 624 Z Z" stroke-miterlimit="10"/></g><g transform="translate(-246,-142) scale(1,1)"><path fill="none" stroke="#000000" d="M 304 649 L 470.16796875 649" stroke-miterlimit="10"/></g><g transform="translate(-246,-142) scale(1,1)"><path fill="none" stroke="#000000" d="M 304 702 L 470.16796875 702" stroke-miterlimit="10"/></g><g transform="translate(-246,-142) scale(1,1)"><g><path fill="none" stroke="none"/><text fill="#000000" stroke="none" font-family="Arial" font-size="13px" font-style="normal" font-weight="bold" text-decoration="none" x="362.509033203125" y="643.5">Location</text></g></g><g transform="translate(-246,-142) scale(1,1)"><g><path fill="none" stroke="none"/><text fill="#000000" stroke="none" font-family="Arial" font-size="13px" font-style="normal" font-weight="normal" text-decoration="none" x="309" y="666.5">+latitude: Decimal</text></g></g><g transform="translate(-246,-142) scale(1,1)"><g><path fill="none" stroke="none"/><text fill="#000000" stroke="none" font-family="Arial" font-size="13px" font-style="normal" font-weight="normal" text-decoration="none" x="309" y="681.5">+longitude: Decimal</text></g></g><g transform="translate(-246,-142) scale(1,1)"><g><path fill="none" stroke="none"/><text fill="#000000" stroke="none" font-family="Arial" font-size="13px" font-style="normal" font-weight="normal" text-decoration="none" x="309" y="696.5">+address: Address</text></g></g><g transform="translate(-246,-142) scale(1,1)"><rect fill="#C0C0C0" stroke="none" x="439" y="351" width="162.55615234375" height="162" opacity="0.2"/></g><g transform="translate(-246,-142) scale(1,1)"><rect fill="#ffffff" stroke="none" x="432" y="344" width="162.55615234375" height="162"/></g><g transform="translate(-246,-142) scale(1,1)"><path fill="none" stroke="#000000" d="M 432 344 L 594.55615234375 344 L 594.55615234375 506 L 432 506 L 432 344 Z Z" stroke-miterlimit="10"/></g><g transform="translate(-246,-142) scale(1,1)"><path fill="none" stroke="#000000" d="M 432 369 L 594.55615234375 369" stroke-miterlimit="10"/></g><g transform="translate(-246,-142) scale(1,1)"><path fill="none" stroke="#000000" d="M 432 497 L 594.55615234375 497" stroke-miterlimit="10"/></g><g transform="translate(-246,-142) scale(1,1)"><g><path fill="none" stroke="none"/><text fill="#000000" stroke="none" font-family="Arial" font-size="13px" font-style="normal" font-weight="bold" text-decoration="none" x="500.271728515625" y="363.5">Post</text></g></g><g transform="translate(-246,-142) scale(1,1)"><g><path fill="none" stroke="none"/><text fill="#000000" stroke="none" font-family="Arial" font-size="13px" font-style="normal" font-weight="normal" text-decoration="none" x="437" y="386.5">+photo: String</text></g></g><g transform="translate(-246,-142) scale(1,1)"><g><path fill="none" stroke="none"/><text fill="#000000" stroke="none" font-family="Arial" font-size="13px" font-style="normal" font-weight="normal" text-decoration="none" x="437" y="401.5">+resolution: String</text></g></g><g transform="translate(-246,-142) scale(1,1)"><g><path fill="none" stroke="none"/><text fill="#000000" stroke="none" font-family="Arial" font-size="13px" font-style="normal" font-weight="normal" text-decoration="none" x="437" y="416.5">+description: Text[0..1]</text></g></g><g transform="translate(-246,-142) scale(1,1)"><g><path fill="none" stroke="none"/><text fill="#000000" stroke="none" font-family="Arial" font-size="13px" font-style="normal" font-weight="normal" text-decoration="none" x="437" y="431.5">+size: Integer</text></g></g><g transform="translate(-246,-142) scale(1,1)"><g><path fill="none" stroke="none"/><text fill="#000000" stroke="none" font-family="Arial" font-size="13px" font-style="normal" font-weight="normal" text-decoration="none" x="437" y="446.5">+extension: String</text></g></g><g transform="translate(-246,-142) scale(1,1)"><g><path fill="none" stroke="none"/><text fill="#000000" stroke="none" font-family="Arial" font-size="13px" font-style="normal" font-weight="normal" text-decoration="none" x="437" y="461.5">+posting_date: Timestamp</text></g></g><g transform="translate(-246,-142) scale(1,1)"><g><path fill="none" stroke="none"/><text fill="#000000" stroke="none" font-family="Arial" font-size="13px" font-style="normal" font-weight="normal" text-decoration="none" x="437" y="476.5">+status: status_T</text></g></g><g transform="translate(-246,-142) scale(1,1)"><g><path fill="none" stroke="none"/><text fill="#000000" stroke="none" font-family="Arial" font-size="13px" font-style="normal" font-weight="normal" text-decoration="none" x="437" y="491.5">+preview: String</text></g></g><g transform="translate(-246,-142) scale(1,1)"><rect fill="#C0C0C0" stroke="none" x="263" y="255" width="122.826171875" height="72" opacity="0.2"/></g><g transform="translate(-246,-142) scale(1,1)"><rect fill="#ffffff" stroke="none" x="256" y="248" width="122.826171875" height="72"/></g><g transform="translate(-246,-142) scale(1,1)"><path fill="none" stroke="#000000" d="M 256 248 L 378.826171875 248 L 378.826171875 320 L 256 320 L 256 248 Z Z" stroke-miterlimit="10"/></g><g transform="translate(-246,-142) scale(1,1)"><path fill="none" stroke="#000000" d="M 256 273 L 378.826171875 273" stroke-miterlimit="10"/></g><g transform="translate(-246,-142) scale(1,1)"><path fill="none" stroke="#000000" d="M 256 311 L 378.826171875 311" stroke-miterlimit="10"/></g><g transform="translate(-246,-142) scale(1,1)"><g><path fill="none" stroke="none"/><text fill="#000000" stroke="none" font-family="Arial" font-size="13px" font-style="normal" font-weight="bold" text-decoration="none" x="295.732666015625" y="267.5">Subject</text></g></g><g transform="translate(-246,-142) scale(1,1)"><g><path fill="none" stroke="none"/><text fill="#000000" stroke="none" font-family="Arial" font-size="13px" font-style="normal" font-weight="normal" text-decoration="none" x="261" y="290.5">+name: String</text></g></g><g transform="translate(-246,-142) scale(1,1)"><g><path fill="none" stroke="none"/><text fill="#000000" stroke="none" font-family="Arial" font-size="13px" font-style="normal" font-weight="normal" text-decoration="none" x="261" y="305.5">+category: String</text></g></g><g transform="translate(-246,-142) scale(1,1)"><rect fill="#C0C0C0" stroke="none" x="663" y="287" width="91.36083984375" height="44" opacity="0.2"/></g><g transform="translate(-246,-142) scale(1,1)"><rect fill="#ffffff" stroke="none" x="656" y="280" width="91.36083984375" height="44"/></g><g transform="translate(-246,-142) scale(1,1)"><path fill="none" stroke="#000000" d="M 656 280 L 747.36083984375 280 L 747.36083984375 324 L 656 324 L 656 280 Z Z" stroke-miterlimit="10"/></g><g transform="translate(-246,-142) scale(1,1)"><path fill="none" stroke="#000000" d="M 656 305 L 747.36083984375 305" stroke-miterlimit="10"/></g><g transform="translate(-246,-142) scale(1,1)"><path fill="none" stroke="#000000" d="M 656 315 L 747.36083984375 315" stroke-miterlimit="10"/></g><g transform="translate(-246,-142) scale(1,1)"><g><path fill="none" stroke="none"/><text fill="#000000" stroke="none" font-family="Arial" font-size="13px" font-style="normal" font-weight="bold" text-decoration="none" x="662.29638671875" y="299.5">Tagged_User</text></g></g><g transform="translate(-246,-142) scale(1,1)"><rect fill="#C0C0C0" stroke="none" x="919" y="567" width="87.05712890625" height="44" opacity="0.2"/></g><g transform="translate(-246,-142) scale(1,1)"><rect fill="#ffffff" stroke="none" x="912" y="560" width="87.05712890625" height="44"/></g><g transform="translate(-246,-142) scale(1,1)"><path fill="none" stroke="#000000" d="M 912 560 L 999.05712890625 560 L 999.05712890625 604 L 912 604 L 912 560 Z Z" stroke-miterlimit="10"/></g><g transform="translate(-246,-142) scale(1,1)"><path fill="none" stroke="#000000" d="M 912 585 L 999.05712890625 585" stroke-miterlimit="10"/></g><g transform="translate(-246,-142) scale(1,1)"><path fill="none" stroke="#000000" d="M 912 595 L 999.05712890625 595" stroke-miterlimit="10"/></g><g transform="translate(-246,-142) scale(1,1)"><g><path fill="none" stroke="none"/><text fill="#000000" stroke="none" font-family="Arial" font-size="13px" font-style="normal" font-weight="bold" text-decoration="none" x="918.32177734375" y="579.5">User_Device</text></g></g><g transform="translate(-246,-142) scale(1,1)"><path fill="none" stroke="#000000" d="M 496 506 L 496 675 M 496 675 A 8 8 0 0 0 504 683 L 624 683" stroke-miterlimit="10"/></g><g transform="translate(-246,-142) scale(1,1)"><g><path fill="none" stroke="none"/><text fill="#000000" stroke="none" font-family="Arial" font-size="13px" font-style="normal" font-weight="normal" text-decoration="none" x="502.5" y="604.5">+snapped with</text></g></g><g transform="translate(-246,-142) scale(1,1)"><g><path fill="none" stroke="none"/><text fill="#000000" stroke="none" font-family="Arial" font-size="13px" font-style="normal" font-weight="normal" text-decoration="none" x="590.658203125" y="715.5">1..1</text></g></g><g transform="translate(-246,-142) scale(1,1)"><g><path fill="none" stroke="none"/><text fill="#000000" stroke="none" font-family="Arial" font-size="13px" font-style="normal" font-weight="normal" text-decoration="none" x="470.74365234375" y="523.5">0..*</text></g></g><g transform="translate(-246,-142) scale(1,1)"><path fill="none" stroke="#000000" d="M 595 472 L 808 472" stroke-miterlimit="10"/></g><g transform="translate(-246,-142) scale(1,1)"><g><path fill="none" stroke="none"/><text fill="#000000" stroke="none" font-family="Arial" font-size="13px" font-style="normal" font-weight="normal" text-decoration="none" x="679.700927734375" y="467.5">+likes</text></g></g><g transform="translate(-246,-142) scale(1,1)"><g><path fill="none" stroke="none"/><text fill="#000000" stroke="none" font-family="Arial" font-size="13px" font-style="normal" font-weight="normal" text-decoration="none" x="605.74365234375" y="490.5">0..*</text></g></g><g transform="translate(-246,-142) scale(1,1)"><g><path fill="none" stroke="none"/><text fill="#000000" stroke="none" font-family="Arial" font-size="13px" font-style="normal" font-weight="normal" text-decoration="none" x="775.74365234375" y="490.5">0..*</text></g></g><g transform="translate(-246,-142) scale(1,1)"><path fill="none" stroke="#000000" d="M 927 384 L 960 384 L 960 312 L 896 312 L 896 344" stroke-miterlimit="10"/></g><g transform="translate(-246,-142) scale(1,1)"><g><path fill="none" stroke="none"/><text fill="#000000" stroke="none" font-family="Arial" font-size="13px" font-style="normal" font-weight="normal" text-decoration="none" x="967.5" y="355.5">+subscribing</text></g></g><g transform="translate(-246,-142) scale(1,1)"><g><path fill="none" stroke="none"/><text fill="#000000" stroke="none" font-family="Arial" font-size="13px" font-style="normal" font-weight="normal" text-decoration="none" x="935.74365234375" y="380.5">0..*</text></g></g><g transform="translate(-246,-142) scale(1,1)"><g><path fill="none" stroke="none"/><text fill="#000000" stroke="none" font-family="Arial" font-size="13px" font-style="normal" font-weight="normal" text-decoration="none" x="902.74365234375" y="332.5">0..*</text></g></g><g transform="translate(-246,-142) scale(1,1)"><path fill="none" stroke="#000000" d="M 921 266 L 922 312 L 928 312" stroke-miterlimit="10" stroke-dasharray="3"/></g><g transform="translate(-246,-142) scale(1,1)"><path fill="none" stroke="#000000" d="M 768 683 L 872 683 M 872 683 A 8 8 0 0 0 880 675 L 880 491" stroke-miterlimit="10"/></g><g transform="translate(-246,-142) scale(1,1)"><g><path fill="none" stroke="none"/><text fill="#000000" stroke="none" font-family="Arial" font-size="13px" font-style="normal" font-weight="normal" text-decoration="none" x="831.1650390625" y="603.5">+holds</text></g></g><g transform="translate(-246,-142) scale(1,1)"><g><path fill="none" stroke="none"/><text fill="#000000" stroke="none" font-family="Arial" font-size="13px" font-style="normal" font-weight="normal" text-decoration="none" x="775.74365234375" y="699.5">0..*</text></g></g><g transform="translate(-246,-142) scale(1,1)"><g><path fill="none" stroke="none"/><text fill="#000000" stroke="none" font-family="Arial" font-size="13px" font-style="normal" font-weight="normal" text-decoration="none" x="887.74365234375" y="507.5">0..*</text></g></g><g transform="translate(-246,-142) scale(1,1)"><path fill="none" stroke="#000000" d="M 911 585 L 880 587" stroke-miterlimit="10" stroke-dasharray="3"/></g><g transform="translate(-246,-142) scale(1,1)"><path fill="none" stroke="#000000" d="M 595 360 L 808 360" stroke-miterlimit="10"/></g><g transform="translate(-246,-142) scale(1,1)"><g><path fill="none" stroke="none"/><text fill="#000000" stroke="none" font-family="Arial" font-size="13px" font-style="normal" font-weight="normal" text-decoration="none" x="683.456787109375" y="380.5">+tags</text></g></g><g transform="translate(-246,-142) scale(1,1)"><g><path fill="none" stroke="none"/><text fill="#000000" stroke="none" font-family="Arial" font-size="13px" font-style="normal" font-weight="normal" text-decoration="none" x="607.74365234375" y="379.5">0..*</text></g></g><g transform="translate(-246,-142) scale(1,1)"><g><path fill="none" stroke="none"/><text fill="#000000" stroke="none" font-family="Arial" font-size="13px" font-style="normal" font-weight="normal" text-decoration="none" x="775.74365234375" y="380.5">0..*</text></g></g><g transform="translate(-246,-142) scale(1,1)"><path fill="none" stroke="#000000" d="M 701 325 L 701 360" stroke-miterlimit="10" stroke-dasharray="3"/></g><g transform="translate(-246,-142) scale(1,1)"><path fill="none" stroke="#000000" d="M 616 208 L 568 208 M 568 208 A 8 8 0 0 0 560 216 L 560 344" stroke-miterlimit="10"/></g><g transform="translate(-246,-142) scale(1,1)"><g><path fill="none" stroke="none"/><text fill="#000000" stroke="none" font-family="Arial" font-size="13px" font-style="normal" font-weight="normal" text-decoration="none" x="566.490966796875" y="275.5">+included</text></g></g><g transform="translate(-246,-142) scale(1,1)"><g><path fill="none" stroke="none"/><text fill="#000000" stroke="none" font-family="Arial" font-size="13px" font-style="normal" font-weight="normal" text-decoration="none" x="590.74365234375" y="203.5">0..*</text></g></g><g transform="translate(-246,-142) scale(1,1)"><g><path fill="none" stroke="none"/><text fill="#000000" stroke="none" font-family="Arial" font-size="13px" font-style="normal" font-weight="normal" text-decoration="none" x="534.74365234375" y="339.5">0..*</text></g></g><g transform="translate(-246,-142) scale(1,1)"><path fill="none" stroke="#000000" d="M 560 276 L 522 276" stroke-miterlimit="10" stroke-dasharray="3"/></g><g transform="translate(-246,-142) scale(1,1)"><path fill="none" stroke="#000000" d="M 701 503 L 701 473" stroke-miterlimit="10" stroke-dasharray="3"/></g><g transform="translate(-246,-142) scale(1,1)"><rect fill="#C0C0C0" stroke="none" x="919" y="711" width="95.72802734375" height="75" opacity="0.2"/></g><g transform="translate(-246,-142) scale(1,1)"><rect fill="#ffffff" stroke="none" x="912" y="704" width="95.72802734375" height="75"/></g><g transform="translate(-246,-142) scale(1,1)"><path fill="none" stroke="#000000" d="M 912 704 L 1007.72802734375 704 L 1007.72802734375 779 L 912 779 L 912 704 Z Z" stroke-miterlimit="10"/></g><g transform="translate(-246,-142) scale(1,1)"><path fill="none" stroke="#000000" d="M 912 742 L 1007.72802734375 742" stroke-miterlimit="10"/></g><g transform="translate(-246,-142) scale(1,1)"><g><path fill="none" stroke="none"/><text fill="#000000" stroke="none" font-family="Arial" font-size="13px" font-style="normal" font-weight="normal" text-decoration="none" x="916.5" y="721.5">«enumeration»</text></g></g><g transform="translate(-246,-142) scale(1,1)"><g><path fill="none" stroke="none"/><text fill="#000000" stroke="none" font-family="Arial" font-size="13px" font-style="normal" font-weight="bold" text-decoration="none" x="933.489501953125" y="736.5">device_T</text></g></g><g transform="translate(-246,-142) scale(1,1)"><g><path fill="none" stroke="none"/><text fill="#000000" stroke="none" font-family="Arial" font-size="13px" font-style="normal" font-weight="normal" text-decoration="none" x="917" y="759.5">Smartphone</text></g></g><g transform="translate(-246,-142) scale(1,1)"><g><path fill="none" stroke="none"/><text fill="#000000" stroke="none" font-family="Arial" font-size="13px" font-style="normal" font-weight="normal" text-decoration="none" x="917" y="774.5">Digital Camera</text></g></g><g transform="translate(-246,-142) scale(1,1)"><rect fill="#C0C0C0" stroke="none" x="919" y="623" width="95.72802734375" height="75" opacity="0.2"/></g><g transform="translate(-246,-142) scale(1,1)"><rect fill="#ffffff" stroke="none" x="912" y="616" width="95.72802734375" height="75"/></g><g transform="translate(-246,-142) scale(1,1)"><path fill="none" stroke="#000000" d="M 912 616 L 1007.72802734375 616 L 1007.72802734375 691 L 912 691 L 912 616 Z Z" stroke-miterlimit="10"/></g><g transform="translate(-246,-142) scale(1,1)"><path fill="none" stroke="#000000" d="M 912 654 L 1007.72802734375 654" stroke-miterlimit="10"/></g><g transform="translate(-246,-142) scale(1,1)"><g><path fill="none" stroke="none"/><text fill="#000000" stroke="none" font-family="Arial" font-size="13px" font-style="normal" font-weight="normal" text-decoration="none" x="916.5" y="633.5">«enumeration»</text></g></g><g transform="translate(-246,-142) scale(1,1)"><g><path fill="none" stroke="none"/><text fill="#000000" stroke="none" font-family="Arial" font-size="13px" font-style="normal" font-weight="bold" text-decoration="none" x="934.936767578125" y="648.5">status_T</text></g></g><g transform="translate(-246,-142) scale(1,1)"><g><path fill="none" stroke="none"/><text fill="#000000" stroke="none" font-family="Arial" font-size="13px" font-style="normal" font-weight="normal" text-decoration="none" x="917" y="671.5">Public</text></g></g><g transform="translate(-246,-142) scale(1,1)"><g><path fill="none" stroke="none"/><text fill="#000000" stroke="none" font-family="Arial" font-size="13px" font-style="normal" font-weight="normal" text-decoration="none" x="917" y="686.5">Private</text></g></g><g transform="translate(-246,-142) scale(1,1)"><rect fill="#C0C0C0" stroke="none" x="295" y="727" width="139.4443359375" height="117" opacity="0.2"/></g><g transform="translate(-246,-142) scale(1,1)"><rect fill="#ffffff" stroke="none" x="288" y="720" width="139.4443359375" height="117"/></g><g transform="translate(-246,-142) scale(1,1)"><path fill="none" stroke="#000000" d="M 288 720 L 427.4443359375 720 L 427.4443359375 837 L 288 837 L 288 720 Z Z" stroke-miterlimit="10"/></g><g transform="translate(-246,-142) scale(1,1)"><path fill="none" stroke="#000000" d="M 288 745 L 427.4443359375 745" stroke-miterlimit="10"/></g><g transform="translate(-246,-142) scale(1,1)"><path fill="none" stroke="#000000" d="M 288 828 L 427.4443359375 828" stroke-miterlimit="10"/></g><g transform="translate(-246,-142) scale(1,1)"><g><path fill="none" stroke="none"/><text fill="#000000" stroke="none" font-family="Arial" font-size="13px" font-style="normal" font-weight="bold" text-decoration="none" x="333.877197265625" y="739.5">Address</text></g></g><g transform="translate(-246,-142) scale(1,1)"><g><path fill="none" stroke="none"/><text fill="#000000" stroke="none" font-family="Arial" font-size="13px" font-style="normal" font-weight="normal" text-decoration="none" x="293" y="762.5">+country: String</text></g></g><g transform="translate(-246,-142) scale(1,1)"><g><path fill="none" stroke="none"/><text fill="#000000" stroke="none" font-family="Arial" font-size="13px" font-style="normal" font-weight="normal" text-decoration="none" x="293" y="777.5">+state: String</text></g></g><g transform="translate(-246,-142) scale(1,1)"><g><path fill="none" stroke="none"/><text fill="#000000" stroke="none" font-family="Arial" font-size="13px" font-style="normal" font-weight="normal" text-decoration="none" x="293" y="792.5">+city: String</text></g></g><g transform="translate(-246,-142) scale(1,1)"><g><path fill="none" stroke="none"/><text fill="#000000" stroke="none" font-family="Arial" font-size="13px" font-style="normal" font-weight="normal" text-decoration="none" x="293" y="807.5">+postcode: String</text></g></g><g transform="translate(-246,-142) scale(1,1)"><g><path fill="none" stroke="none"/><text fill="#000000" stroke="none" font-family="Arial" font-size="13px" font-style="normal" font-weight="normal" text-decoration="none" x="293" y="822.5">+street: Street</text></g></g><g transform="translate(-246,-142) scale(1,1)"><rect fill="#C0C0C0" stroke="none" x="439" y="751" width="119.18896484375" height="87" opacity="0.2"/></g><g transform="translate(-246,-142) scale(1,1)"><rect fill="#ffffff" stroke="none" x="432" y="744" width="119.18896484375" height="87"/></g><g transform="translate(-246,-142) scale(1,1)"><path fill="none" stroke="#000000" d="M 432 744 L 551.18896484375 744 L 551.18896484375 831 L 432 831 L 432 744 Z Z" stroke-miterlimit="10"/></g><g transform="translate(-246,-142) scale(1,1)"><path fill="none" stroke="#000000" d="M 432 769 L 551.18896484375 769" stroke-miterlimit="10"/></g><g transform="translate(-246,-142) scale(1,1)"><path fill="none" stroke="#000000" d="M 432 822 L 551.18896484375 822" stroke-miterlimit="10"/></g><g transform="translate(-246,-142) scale(1,1)"><g><path fill="none" stroke="none"/><text fill="#000000" stroke="none" font-family="Arial" font-size="13px" font-style="normal" font-weight="bold" text-decoration="none" x="474.252685546875" y="763.5">Street</text></g></g><g transform="translate(-246,-142) scale(1,1)"><g><path fill="none" stroke="none"/><text fill="#000000" stroke="none" font-family="Arial" font-size="13px" font-style="normal" font-weight="normal" text-decoration="none" x="437" y="786.5">+streetType: String</text></g></g><g transform="translate(-246,-142) scale(1,1)"><g><path fill="none" stroke="none"/><text fill="#000000" stroke="none" font-family="Arial" font-size="13px" font-style="normal" font-weight="normal" text-decoration="none" x="437" y="801.5">+name: String</text></g></g><g transform="translate(-246,-142) scale(1,1)"><g><path fill="none" stroke="none"/><text fill="#000000" stroke="none" font-family="Arial" font-size="13px" font-style="normal" font-weight="normal" text-decoration="none" x="437" y="816.5">+number: String</text></g></g><g transform="translate(-246,-142) scale(1,1)"><path fill="none" stroke="#000000" d="M 328 320 L 328 368 M 328 368 A 8 8 0 0 0 336 376 L 432 376" stroke-miterlimit="10"/></g><g transform="translate(-246,-142) scale(1,1)"><g><path fill="none" stroke="none"/><text fill="#000000" stroke="none" font-family="Arial" font-size="13px" font-style="normal" font-weight="normal" text-decoration="none" x="342.5" y="367.5">+contains</text></g></g><g transform="translate(-246,-142) scale(1,1)"><g><path fill="none" stroke="none"/><text fill="#000000" stroke="none" font-family="Arial" font-size="13px" font-style="normal" font-weight="normal" text-decoration="none" x="304.5" y="339.5">0..5</text></g></g><g transform="translate(-246,-142) scale(1,1)"><g><path fill="none" stroke="none"/><text fill="#000000" stroke="none" font-family="Arial" font-size="13px" font-style="normal" font-weight="normal" text-decoration="none" x="408.58544921875" y="394.5">1..*</text></g></g><g transform="translate(-246,-142) scale(1,1)"><path fill="none" stroke="#000000" d="M 761 208 L 800 208 M 800 208 A 8 8 0 0 1 808 216 L 808 344" stroke-miterlimit="10"/></g><g transform="translate(-246,-142) scale(1,1)"><g><path fill="none" stroke="none"/><text fill="#000000" stroke="none" font-family="Arial" font-size="13px" font-style="normal" font-weight="normal" text-decoration="none" x="814.5" y="291.5">+creates</text></g></g><g transform="translate(-246,-142) scale(1,1)"><g><path fill="none" stroke="none"/><text fill="#000000" stroke="none" font-family="Arial" font-size="13px" font-style="normal" font-weight="normal" text-decoration="none" x="772.5" y="204.5">0..*</text></g></g><g transform="translate(-246,-142) scale(1,1)"><g><path fill="none" stroke="none"/><text fill="#000000" stroke="none" font-family="Arial" font-size="13px" font-style="normal" font-weight="normal" text-decoration="none" x="815.5" y="340.5">1..1</text></g></g><g transform="translate(-246,-142) scale(1,1)"><path fill="none" stroke="#000000" d="M 595 423 L 808 423" stroke-miterlimit="10"/></g><g transform="translate(-246,-142) scale(1,1)"><g><path fill="none" stroke="none"/><text fill="#000000" stroke="none" font-family="Arial" font-size="13px" font-style="normal" font-weight="normal" text-decoration="none" x="669.5" y="414.5">+publishes</text></g></g><g transform="translate(-246,-142) scale(1,1)"><g><path fill="none" stroke="none"/><text fill="#000000" stroke="none" font-family="Arial" font-size="13px" font-style="normal" font-weight="normal" text-decoration="none" x="606.5" y="441.5">0..*</text></g></g><g transform="translate(-246,-142) scale(1,1)"><g><path fill="none" stroke="none"/><text fill="#000000" stroke="none" font-family="Arial" font-size="13px" font-style="normal" font-weight="normal" text-decoration="none" x="775.5" y="441.5">0..1</text></g></g><g transform="translate(-246,-142) scale(1,1)"><path fill="none" stroke="#000000" d="M 432 624 L 432 506" stroke-miterlimit="10"/></g><g transform="translate(-246,-142) scale(1,1)"><g><path fill="none" stroke="none"/><text fill="#000000" stroke="none" font-family="Arial" font-size="13px" font-style="normal" font-weight="normal" text-decoration="none" x="359.5" y="572.5">+snapped in</text></g></g><g transform="translate(-246,-142) scale(1,1)"><g><path fill="none" stroke="none"/><text fill="#000000" stroke="none" font-family="Arial" font-size="13px" font-style="normal" font-weight="normal" text-decoration="none" x="407.5" y="611.5">0..1</text></g></g><g transform="translate(-246,-142) scale(1,1)"><g><path fill="none" stroke="none"/><text fill="#000000" stroke="none" font-family="Arial" font-size="13px" font-style="normal" font-weight="normal" text-decoration="none" x="407.5" y="523.5">1..1</text></g></g></g></svg>